<?xml version="1.0" encoding="UTF-8"?>
<svg xmlns="http://www.w3.org/2000/svg" xmlns:xlink="http://www.w3.org/1999/xlink" width="64px" height="64px" viewBox="0 0 64 64" version="1.1">
<g id="surface1">
<path style=" stroke:none;fill-rule:nonzero;fill:rgb(34.901962%,10.980392%,68.627453%);fill-opacity:1;" d="M 33.1875 14.5625 C 33.25 14.5625 33.3125 14.5625 33.375 14.5625 C 33.390625 14.621094 33.40625 14.683594 33.421875 14.746094 C 33.566406 15.265625 33.726562 15.609375 34.144531 15.972656 C 34.28125 16.097656 34.394531 16.214844 34.511719 16.355469 C 34.734375 16.613281 34.972656 16.855469 35.210938 17.09375 C 35.257812 17.136719 35.300781 17.179688 35.347656 17.226562 C 35.441406 17.320312 35.535156 17.414062 35.628906 17.507812 C 35.777344 17.65625 35.929688 17.804688 36.078125 17.953125 C 36.503906 18.375 36.925781 18.796875 37.351562 19.21875 C 37.613281 19.480469 37.871094 19.738281 38.132812 19.996094 C 38.230469 20.097656 38.332031 20.195312 38.429688 20.292969 C 38.566406 20.429688 38.707031 20.566406 38.84375 20.707031 C 38.886719 20.746094 38.925781 20.789062 38.96875 20.828125 C 39.25 21.109375 39.25 21.109375 39.25 21.25 C 39.300781 21.269531 39.300781 21.269531 39.355469 21.289062 C 39.515625 21.382812 39.609375 21.5 39.722656 21.648438 C 39.855469 21.796875 40.007812 21.917969 40.164062 22.042969 C 40.191406 22.070312 40.222656 22.097656 40.25 22.125 C 40.25 22.167969 40.25 22.207031 40.25 22.25 C 40.332031 22.292969 40.414062 22.332031 40.5 22.375 C 40.5 22.417969 40.5 22.457031 40.5 22.5 C 40.554688 22.523438 40.554688 22.523438 40.609375 22.546875 C 40.769531 22.636719 40.878906 22.738281 41 22.875 C 41 22.917969 41 22.957031 41 23 C 41.082031 23.042969 41.164062 23.082031 41.25 23.125 C 41.25 23.167969 41.25 23.207031 41.25 23.25 C 41.292969 23.25 41.332031 23.25 41.375 23.25 C 41.453125 23.328125 41.453125 23.328125 41.546875 23.445312 C 41.894531 23.855469 42.28125 24.226562 42.664062 24.605469 C 42.742188 24.683594 42.816406 24.757812 42.894531 24.835938 C 43.035156 24.976562 43.175781 25.113281 43.316406 25.253906 C 43.429688 25.367188 43.539062 25.476562 43.652344 25.589844 C 43.8125 25.75 43.976562 25.914062 44.140625 26.074219 C 44.316406 26.246094 44.488281 26.417969 44.664062 26.589844 C 44.753906 26.679688 44.847656 26.769531 44.9375 26.859375 C 45.441406 27.359375 45.925781 27.839844 46.3125 28.4375 C 46.347656 28.492188 46.382812 28.546875 46.421875 28.601562 C 47.039062 29.5625 47.082031 30.585938 47.078125 31.695312 C 47.078125 31.867188 47.078125 32.039062 47.078125 32.210938 C 47.082031 33.144531 47.058594 34.027344 46.625 34.875 C 46.601562 34.921875 46.578125 34.972656 46.550781 35.019531 C 46.175781 35.675781 45.601562 36.175781 45.0625 36.699219 C 44.910156 36.851562 44.757812 37 44.601562 37.152344 C 44.507812 37.246094 44.414062 37.335938 44.320312 37.429688 C 43.972656 37.769531 43.648438 38.125 43.347656 38.503906 C 43.1875 38.6875 43.023438 38.835938 42.839844 38.992188 C 42.648438 39.15625 42.464844 39.328125 42.28125 39.5 C 42.058594 39.707031 41.839844 39.910156 41.609375 40.105469 C 41.429688 40.257812 41.265625 40.421875 41.101562 40.59375 C 40.824219 40.875 40.515625 41.09375 40.1875 41.3125 C 39.816406 41.570312 39.507812 41.863281 39.195312 42.1875 C 39.0625 42.3125 39.0625 42.3125 38.9375 42.3125 C 38.9375 42.355469 38.9375 42.394531 38.9375 42.4375 C 38.847656 42.527344 38.847656 42.527344 38.722656 42.628906 C 38.433594 42.875 38.167969 43.140625 37.898438 43.40625 C 37.851562 43.457031 37.800781 43.507812 37.75 43.558594 C 37.59375 43.714844 37.4375 43.875 37.28125 44.03125 C 37.074219 44.238281 36.867188 44.445312 36.664062 44.65625 C 36.59375 44.726562 36.59375 44.726562 36.519531 44.796875 C 36.3125 45.003906 36.105469 45.207031 35.882812 45.398438 C 35.589844 45.652344 35.316406 45.925781 35.046875 46.203125 C 34.953125 46.296875 34.859375 46.394531 34.765625 46.488281 C 34.496094 46.757812 34.230469 47.027344 33.964844 47.296875 C 33.800781 47.460938 33.636719 47.625 33.472656 47.792969 C 33.410156 47.855469 33.347656 47.917969 33.285156 47.980469 C 33.199219 48.070312 33.113281 48.15625 33.027344 48.242188 C 32.976562 48.292969 32.929688 48.34375 32.878906 48.394531 C 32.75 48.5 32.75 48.5 32.5625 48.5 C 32.546875 48.4375 32.546875 48.4375 32.53125 48.371094 C 32.4375 48.1875 32.367188 48.117188 32.210938 47.984375 C 31.953125 47.765625 31.710938 47.53125 31.472656 47.289062 C 31.433594 47.25 31.390625 47.207031 31.347656 47.164062 C 31.214844 47.03125 31.085938 46.898438 30.953125 46.765625 C 30.777344 46.589844 30.605469 46.414062 30.429688 46.238281 C 30.390625 46.199219 30.351562 46.160156 30.3125 46.117188 C 30.160156 45.96875 30.019531 45.828125 29.847656 45.699219 C 29.816406 45.675781 29.785156 45.652344 29.75 45.625 C 29.75 45.582031 29.75 45.542969 29.75 45.5 C 29.714844 45.484375 29.679688 45.472656 29.644531 45.457031 C 29.453125 45.347656 29.320312 45.210938 29.167969 45.054688 C 29.113281 44.996094 29.054688 44.941406 28.996094 44.882812 C 28.867188 44.75 28.746094 44.613281 28.625 44.46875 C 28.320312 44.121094 27.992188 43.796875 27.660156 43.46875 C 27.589844 43.394531 27.519531 43.324219 27.445312 43.253906 C 27.292969 43.101562 27.140625 42.949219 26.988281 42.796875 C 26.746094 42.554688 26.503906 42.3125 26.261719 42.070312 C 25.746094 41.558594 25.234375 41.042969 24.71875 40.53125 C 24.164062 39.976562 23.609375 39.421875 23.054688 38.867188 C 22.8125 38.628906 22.574219 38.390625 22.332031 38.148438 C 22.183594 38 22.03125 37.851562 21.882812 37.699219 C 21.8125 37.632812 21.742188 37.5625 21.675781 37.492188 C 21.34375 37.164062 21.019531 36.835938 20.71875 36.480469 C 20.546875 36.285156 20.359375 36.101562 20.175781 35.917969 C 20.136719 35.878906 20.101562 35.84375 20.0625 35.804688 C 19.910156 35.652344 19.769531 35.515625 19.597656 35.386719 C 19.550781 35.351562 19.550781 35.351562 19.5 35.3125 C 19.5 35.269531 19.5 35.230469 19.5 35.1875 C 19.457031 35.1875 19.417969 35.1875 19.375 35.1875 C 19.214844 35.035156 19.078125 34.855469 18.9375 34.6875 C 18.886719 34.628906 18.835938 34.570312 18.78125 34.507812 C 17.972656 33.578125 17.738281 32.660156 17.730469 31.4375 C 17.730469 31.351562 17.730469 31.265625 17.726562 31.183594 C 17.699219 29.863281 18.167969 28.824219 19.0625 27.867188 C 19.304688 27.621094 19.554688 27.394531 19.816406 27.167969 C 19.933594 27.066406 20.046875 26.957031 20.15625 26.84375 C 20.300781 26.699219 20.445312 26.558594 20.601562 26.425781 C 21.128906 25.972656 21.632812 25.496094 22.121094 25 C 22.285156 24.839844 22.457031 24.691406 22.632812 24.542969 C 22.75 24.4375 22.859375 24.332031 22.96875 24.21875 C 23.242188 23.941406 23.539062 23.6875 23.839844 23.433594 C 24.171875 23.144531 24.449219 22.839844 24.722656 22.492188 C 24.890625 22.292969 25.070312 22.105469 25.253906 21.921875 C 25.296875 21.878906 25.296875 21.878906 25.34375 21.832031 C 25.511719 21.667969 25.683594 21.511719 25.859375 21.359375 C 26.160156 21.097656 26.441406 20.816406 26.71875 20.53125 C 27.070312 20.171875 27.429688 19.828125 27.8125 19.5 C 27.917969 19.40625 28.019531 19.3125 28.125 19.21875 C 28.3125 19.050781 28.496094 18.886719 28.6875 18.722656 C 28.941406 18.503906 29.171875 18.265625 29.410156 18.027344 C 29.582031 17.855469 29.761719 17.699219 29.945312 17.539062 C 30.0625 17.4375 30.171875 17.328125 30.28125 17.21875 C 30.464844 17.03125 30.65625 16.863281 30.851562 16.691406 C 31.035156 16.53125 31.210938 16.371094 31.386719 16.207031 C 31.421875 16.175781 31.457031 16.144531 31.492188 16.109375 C 31.597656 16.011719 31.707031 15.910156 31.8125 15.8125 C 32.652344 15.035156 32.652344 15.035156 33.039062 14.699219 C 33.089844 14.65625 33.140625 14.609375 33.1875 14.5625 Z M 33.1875 14.5625 "/>
<path style=" stroke:none;fill-rule:nonzero;fill:rgb(94.509804%,94.509804%,94.509804%);fill-opacity:1;" d="M 24.5 22.75 C 24.851562 23.042969 25.175781 23.355469 25.5 23.679688 C 25.554688 23.734375 25.609375 23.789062 25.664062 23.847656 C 25.78125 23.964844 25.898438 24.082031 26.019531 24.199219 C 26.203125 24.386719 26.390625 24.574219 26.578125 24.761719 C 26.972656 25.15625 27.367188 25.554688 27.761719 25.949219 C 28.1875 26.378906 28.617188 26.804688 29.042969 27.234375 C 29.230469 27.417969 29.414062 27.605469 29.597656 27.792969 C 29.742188 27.933594 29.882812 28.074219 30.023438 28.21875 C 30.074219 28.269531 30.125 28.320312 30.179688 28.375 C 30.25 28.445312 30.25 28.445312 30.320312 28.515625 C 30.363281 28.558594 30.402344 28.597656 30.445312 28.640625 C 30.5625 28.753906 30.5625 28.753906 30.703125 28.851562 C 30.757812 28.894531 30.757812 28.894531 30.8125 28.9375 C 30.8125 28.980469 30.8125 29.019531 30.8125 29.0625 C 30.847656 29.078125 30.886719 29.09375 30.921875 29.109375 C 31.078125 29.195312 31.179688 29.289062 31.300781 29.414062 C 31.347656 29.460938 31.394531 29.503906 31.441406 29.550781 C 31.488281 29.601562 31.539062 29.652344 31.589844 29.703125 C 31.640625 29.753906 31.691406 29.804688 31.742188 29.859375 C 31.902344 30.019531 32.066406 30.183594 32.226562 30.347656 C 32.386719 30.511719 32.550781 30.675781 32.710938 30.839844 C 32.8125 30.941406 32.914062 31.042969 33.015625 31.144531 C 33.058594 31.1875 33.105469 31.234375 33.152344 31.28125 C 33.191406 31.324219 33.234375 31.363281 33.273438 31.40625 C 33.371094 31.503906 33.371094 31.503906 33.5 31.5625 C 33.5 31.605469 33.5 31.644531 33.5 31.6875 C 33.535156 31.703125 33.570312 31.71875 33.609375 31.734375 C 33.777344 31.828125 33.894531 31.941406 34.03125 32.082031 C 34.082031 32.136719 34.136719 32.191406 34.191406 32.246094 C 34.246094 32.304688 34.300781 32.359375 34.359375 32.417969 C 34.691406 32.757812 35.023438 33.09375 35.386719 33.402344 C 35.589844 33.578125 35.785156 33.761719 35.980469 33.941406 C 36.121094 34.074219 36.265625 34.199219 36.417969 34.316406 C 36.554688 34.433594 36.636719 34.527344 36.726562 34.679688 C 36.753906 34.722656 36.777344 34.765625 36.804688 34.8125 C 36.898438 34.976562 36.980469 35.144531 37.0625 35.3125 C 37.140625 35.4375 37.21875 35.558594 37.300781 35.679688 C 37.574219 36.167969 37.5625 36.746094 37.472656 37.285156 C 37.328125 37.78125 37 38.21875 36.6875 38.625 C 36.414062 38.535156 36.261719 38.410156 36.0625 38.207031 C 36.03125 38.175781 36.003906 38.144531 35.972656 38.117188 C 35.910156 38.050781 35.847656 37.988281 35.78125 37.921875 C 35.679688 37.816406 35.582031 37.714844 35.476562 37.613281 C 35.226562 37.359375 34.976562 37.101562 34.722656 36.847656 C 34.511719 36.628906 34.296875 36.414062 34.085938 36.199219 C 33.984375 36.097656 33.886719 36 33.789062 35.898438 C 33.171875 35.269531 32.4375 34.621094 31.507812 34.613281 C 31.449219 34.613281 31.386719 34.613281 31.324219 34.613281 C 31.257812 34.613281 31.191406 34.613281 31.125 34.613281 C 31.054688 34.613281 30.984375 34.609375 30.910156 34.609375 C 30.679688 34.609375 30.449219 34.605469 30.214844 34.605469 C 30.054688 34.605469 29.894531 34.601562 29.734375 34.601562 C 29.351562 34.597656 28.972656 34.59375 28.59375 34.59375 C 28.160156 34.589844 27.726562 34.585938 27.296875 34.582031 C 26.40625 34.574219 25.515625 34.570312 24.625 34.5625 C 24.625 34.605469 24.625 34.644531 24.625 34.6875 C 24.660156 34.703125 24.695312 34.71875 24.734375 34.734375 C 24.898438 34.828125 25.007812 34.9375 25.140625 35.074219 C 25.359375 35.296875 25.582031 35.503906 25.820312 35.707031 C 25.972656 35.84375 26.117188 35.992188 26.265625 36.140625 C 26.378906 36.253906 26.5 36.359375 26.621094 36.464844 C 26.835938 36.648438 27.035156 36.847656 27.234375 37.050781 C 27.351562 37.164062 27.472656 37.269531 27.597656 37.378906 C 27.90625 37.648438 28.191406 37.941406 28.476562 38.234375 C 29.710938 39.492188 30.796875 40.359375 32.625 40.5 C 32.625 43.078125 32.625 45.65625 32.625 48.3125 C 32.5 48.3125 32.5 48.3125 32.367188 48.1875 C 32.308594 48.125 32.246094 48.0625 32.1875 48 C 32.109375 47.921875 32.03125 47.84375 31.957031 47.765625 C 31.890625 47.703125 31.890625 47.703125 31.824219 47.636719 C 31.632812 47.441406 31.4375 47.246094 31.242188 47.050781 C 31.140625 46.949219 31.039062 46.847656 30.9375 46.742188 C 30.789062 46.59375 30.640625 46.445312 30.492188 46.296875 C 30.445312 46.253906 30.402344 46.207031 30.355469 46.160156 C 30.289062 46.09375 30.289062 46.09375 30.222656 46.03125 C 30.167969 45.972656 30.167969 45.972656 30.109375 45.914062 C 30 45.808594 30 45.808594 29.859375 45.714844 C 29.824219 45.683594 29.789062 45.65625 29.75 45.625 C 29.75 45.582031 29.75 45.542969 29.75 45.5 C 29.714844 45.484375 29.679688 45.472656 29.644531 45.457031 C 29.453125 45.347656 29.320312 45.210938 29.167969 45.054688 C 29.113281 44.996094 29.054688 44.941406 28.996094 44.882812 C 28.867188 44.75 28.746094 44.613281 28.625 44.46875 C 28.320312 44.121094 27.992188 43.796875 27.660156 43.46875 C 27.589844 43.394531 27.519531 43.324219 27.445312 43.253906 C 27.292969 43.101562 27.140625 42.949219 26.988281 42.796875 C 26.746094 42.554688 26.503906 42.3125 26.261719 42.070312 C 25.746094 41.558594 25.234375 41.042969 24.71875 40.53125 C 24.164062 39.976562 23.609375 39.421875 23.054688 38.867188 C 22.8125 38.628906 22.574219 38.390625 22.332031 38.148438 C 22.183594 38 22.03125 37.851562 21.882812 37.699219 C 21.8125 37.632812 21.742188 37.5625 21.675781 37.492188 C 21.34375 37.164062 21.019531 36.835938 20.71875 36.480469 C 20.546875 36.285156 20.359375 36.101562 20.175781 35.917969 C 20.136719 35.878906 20.101562 35.84375 20.0625 35.804688 C 19.910156 35.652344 19.769531 35.515625 19.597656 35.386719 C 19.550781 35.351562 19.550781 35.351562 19.5 35.3125 C 19.5 35.269531 19.5 35.230469 19.5 35.1875 C 19.457031 35.1875 19.417969 35.1875 19.375 35.1875 C 19.214844 35.035156 19.078125 34.855469 18.9375 34.6875 C 18.886719 34.628906 18.835938 34.570312 18.78125 34.507812 C 17.972656 33.578125 17.738281 32.660156 17.730469 31.4375 C 17.730469 31.351562 17.730469 31.265625 17.726562 31.183594 C 17.699219 29.863281 18.167969 28.824219 19.0625 27.867188 C 19.304688 27.621094 19.554688 27.394531 19.816406 27.167969 C 19.933594 27.066406 20.046875 26.957031 20.15625 26.84375 C 20.300781 26.699219 20.445312 26.558594 20.601562 26.425781 C 21.128906 25.972656 21.632812 25.496094 22.121094 25 C 22.285156 24.839844 22.457031 24.691406 22.632812 24.542969 C 22.75 24.4375 22.859375 24.332031 22.96875 24.21875 C 23.15625 24.03125 23.351562 23.855469 23.550781 23.679688 C 23.707031 23.542969 23.863281 23.40625 24.019531 23.269531 C 24.070312 23.222656 24.121094 23.179688 24.175781 23.132812 C 24.300781 23.011719 24.402344 22.890625 24.5 22.75 Z M 24.5 22.75 "/>
<path style=" stroke:none;fill-rule:nonzero;fill:rgb(22.745098%,31.764707%,85.09804%);fill-opacity:1;" d="M 33.1875 14.5625 C 33.25 14.5625 33.3125 14.5625 33.375 14.5625 C 33.390625 14.621094 33.40625 14.683594 33.421875 14.746094 C 33.566406 15.265625 33.726562 15.609375 34.144531 15.972656 C 34.28125 16.097656 34.394531 16.214844 34.511719 16.355469 C 34.734375 16.613281 34.972656 16.855469 35.210938 17.09375 C 35.257812 17.136719 35.300781 17.179688 35.347656 17.226562 C 35.441406 17.320312 35.535156 17.414062 35.628906 17.507812 C 35.777344 17.65625 35.929688 17.804688 36.078125 17.953125 C 36.503906 18.375 36.925781 18.796875 37.351562 19.21875 C 37.613281 19.480469 37.871094 19.738281 38.132812 19.996094 C 38.230469 20.097656 38.332031 20.195312 38.429688 20.292969 C 38.566406 20.429688 38.707031 20.566406 38.84375 20.707031 C 38.886719 20.746094 38.925781 20.789062 38.96875 20.828125 C 39.25 21.109375 39.25 21.109375 39.25 21.25 C 39.285156 21.261719 39.320312 21.277344 39.355469 21.289062 C 39.515625 21.382812 39.609375 21.5 39.722656 21.648438 C 39.855469 21.796875 40.007812 21.917969 40.164062 22.042969 C 40.191406 22.070312 40.222656 22.097656 40.25 22.125 C 40.25 22.167969 40.25 22.207031 40.25 22.25 C 40.332031 22.292969 40.414062 22.332031 40.5 22.375 C 40.5 22.417969 40.5 22.457031 40.5 22.5 C 40.535156 22.515625 40.570312 22.53125 40.609375 22.546875 C 40.769531 22.636719 40.878906 22.738281 41 22.875 C 41 22.917969 41 22.957031 41 23 C 41.082031 23.042969 41.164062 23.082031 41.25 23.125 C 41.25 23.167969 41.25 23.207031 41.25 23.25 C 41.292969 23.25 41.332031 23.25 41.375 23.25 C 41.453125 23.328125 41.453125 23.328125 41.546875 23.445312 C 41.894531 23.855469 42.28125 24.226562 42.664062 24.605469 C 42.742188 24.683594 42.816406 24.757812 42.894531 24.835938 C 43.035156 24.976562 43.175781 25.113281 43.316406 25.253906 C 43.429688 25.367188 43.539062 25.476562 43.652344 25.589844 C 43.8125 25.75 43.976562 25.914062 44.140625 26.074219 C 44.316406 26.246094 44.488281 26.417969 44.664062 26.589844 C 44.753906 26.679688 44.847656 26.769531 44.9375 26.859375 C 45.441406 27.359375 45.925781 27.839844 46.3125 28.4375 C 46.347656 28.492188 46.382812 28.546875 46.421875 28.601562 C 47.039062 29.5625 47.082031 30.585938 47.078125 31.695312 C 47.078125 31.867188 47.078125 32.039062 47.078125 32.210938 C 47.082031 33.144531 47.058594 34.027344 46.625 34.875 C 46.601562 34.921875 46.578125 34.972656 46.550781 35.019531 C 46.175781 35.675781 45.601562 36.175781 45.0625 36.699219 C 44.910156 36.851562 44.757812 37 44.601562 37.152344 C 44.507812 37.246094 44.414062 37.335938 44.320312 37.429688 C 43.972656 37.769531 43.648438 38.125 43.347656 38.503906 C 43.1875 38.6875 43.023438 38.835938 42.839844 38.992188 C 42.648438 39.15625 42.464844 39.328125 42.28125 39.5 C 42.058594 39.707031 41.839844 39.910156 41.609375 40.105469 C 41.429688 40.257812 41.265625 40.421875 41.101562 40.59375 C 40.742188 40.957031 40.355469 41.261719 39.875 41.4375 C 40.070312 41.203125 40.265625 40.980469 40.488281 40.769531 C 40.992188 40.269531 41.363281 39.722656 41.625 39.0625 C 41.648438 39.011719 41.667969 38.964844 41.691406 38.914062 C 41.925781 38.328125 41.910156 37.746094 41.902344 37.128906 C 41.902344 36.945312 41.902344 36.761719 41.902344 36.582031 C 41.902344 34.675781 41.148438 33.523438 39.832031 32.203125 C 39.664062 32.035156 39.496094 31.867188 39.328125 31.703125 C 38.550781 30.933594 38.550781 30.933594 38.214844 30.539062 C 38.097656 30.40625 37.972656 30.28125 37.84375 30.15625 C 37.628906 29.945312 37.429688 29.726562 37.234375 29.496094 C 37.117188 29.367188 37 29.246094 36.875 29.125 C 36.679688 28.929688 36.496094 28.730469 36.316406 28.519531 C 35.925781 28.078125 35.527344 27.644531 35.105469 27.230469 C 35.003906 27.128906 34.90625 27.019531 34.8125 26.90625 C 34.507812 26.554688 34.175781 26.234375 33.84375 25.90625 C 33.71875 25.78125 33.59375 25.65625 33.46875 25.53125 C 33.410156 25.480469 33.355469 25.425781 33.300781 25.367188 C 33.167969 25.234375 33.042969 25.09375 32.917969 24.949219 C 32.671875 24.664062 32.40625 24.402344 32.140625 24.136719 C 32.089844 24.085938 32.039062 24.035156 31.984375 23.984375 C 31.824219 23.820312 31.660156 23.660156 31.5 23.5 C 31.285156 23.289062 31.074219 23.074219 30.859375 22.863281 C 30.8125 22.816406 30.761719 22.769531 30.714844 22.71875 C 30.457031 22.464844 30.210938 22.203125 29.976562 21.925781 C 29.828125 21.757812 29.667969 21.597656 29.507812 21.4375 C 29.472656 21.40625 29.441406 21.375 29.40625 21.339844 C 29.300781 21.238281 29.199219 21.132812 29.09375 21.03125 C 28.027344 19.976562 28.027344 19.976562 27.75 19.5625 C 27.855469 19.46875 27.957031 19.371094 28.0625 19.277344 C 28.109375 19.234375 28.109375 19.234375 28.15625 19.191406 C 28.332031 19.03125 28.511719 18.875 28.691406 18.71875 C 28.945312 18.5 29.175781 18.261719 29.410156 18.027344 C 29.582031 17.855469 29.761719 17.699219 29.945312 17.539062 C 30.0625 17.4375 30.171875 17.328125 30.28125 17.21875 C 30.464844 17.03125 30.65625 16.863281 30.851562 16.691406 C 31.035156 16.53125 31.210938 16.371094 31.386719 16.207031 C 31.4375 16.160156 31.4375 16.160156 31.492188 16.109375 C 31.597656 16.011719 31.707031 15.910156 31.8125 15.8125 C 32.652344 15.035156 32.652344 15.035156 33.039062 14.699219 C 33.089844 14.65625 33.140625 14.609375 33.1875 14.5625 Z M 33.1875 14.5625 "/>
<path style=" stroke:none;fill-rule:nonzero;fill:rgb(93.725491%,93.333334%,94.509804%);fill-opacity:1;" d="M 33.1875 14.5625 C 33.25 14.5625 33.3125 14.5625 33.375 14.5625 C 33.523438 14.945312 33.589844 15.277344 33.585938 15.683594 C 33.589844 15.765625 33.589844 15.765625 33.589844 15.84375 C 33.589844 16.019531 33.589844 16.191406 33.589844 16.363281 C 33.589844 16.484375 33.589844 16.605469 33.59375 16.726562 C 33.59375 17.042969 33.597656 17.363281 33.597656 17.679688 C 33.597656 18.1875 33.601562 18.699219 33.605469 19.207031 C 33.605469 19.382812 33.605469 19.558594 33.605469 19.738281 C 33.605469 19.847656 33.605469 19.957031 33.609375 20.066406 C 33.609375 20.113281 33.609375 20.164062 33.609375 20.210938 C 33.617188 21.21875 34.089844 22.019531 34.75 22.75 C 34.777344 22.78125 34.808594 22.816406 34.839844 22.847656 C 35.503906 23.621094 35.503906 23.621094 36.265625 24.289062 C 36.304688 24.320312 36.339844 24.347656 36.375 24.375 C 36.375 24.417969 36.375 24.457031 36.375 24.5 C 36.410156 24.515625 36.449219 24.53125 36.484375 24.550781 C 36.636719 24.628906 36.734375 24.71875 36.851562 24.835938 C 36.898438 24.882812 36.941406 24.925781 36.984375 24.96875 C 37.054688 25.039062 37.054688 25.039062 37.125 25.113281 C 37.175781 25.160156 37.222656 25.207031 37.273438 25.257812 C 37.375 25.363281 37.480469 25.464844 37.582031 25.566406 C 37.738281 25.726562 37.894531 25.882812 38.050781 26.039062 C 38.148438 26.136719 38.25 26.238281 38.347656 26.339844 C 38.394531 26.382812 38.441406 26.429688 38.488281 26.476562 C 38.695312 26.6875 38.898438 26.898438 39.085938 27.125 C 39.300781 27.371094 39.535156 27.578125 39.777344 27.792969 C 40.035156 28.023438 40.277344 28.269531 40.519531 28.515625 C 40.597656 28.59375 40.597656 28.59375 40.679688 28.675781 C 40.84375 28.839844 41.011719 29.003906 41.175781 29.171875 C 41.289062 29.285156 41.398438 29.394531 41.511719 29.507812 C 41.714844 29.714844 41.921875 29.917969 42.125 30.125 C 42.167969 30.167969 42.210938 30.210938 42.257812 30.257812 C 42.328125 30.328125 42.402344 30.402344 42.472656 30.472656 C 42.585938 30.589844 42.703125 30.703125 42.824219 30.808594 C 43.410156 31.351562 43.851562 32.066406 43.894531 32.878906 C 43.898438 32.96875 43.898438 33.058594 43.902344 33.148438 C 43.902344 33.199219 43.90625 33.25 43.90625 33.300781 C 43.910156 33.464844 43.914062 33.628906 43.917969 33.789062 C 43.917969 33.875 43.917969 33.875 43.917969 33.960938 C 43.925781 34.257812 43.929688 34.554688 43.933594 34.851562 C 43.941406 35.15625 43.949219 35.460938 43.957031 35.769531 C 43.960938 36.003906 43.964844 36.242188 43.96875 36.476562 C 43.96875 36.589844 43.972656 36.703125 43.976562 36.8125 C 44.003906 37.804688 44.003906 37.804688 43.726562 38.125 C 43.652344 38.1875 43.578125 38.25 43.5 38.3125 C 43.449219 38.375 43.398438 38.4375 43.347656 38.503906 C 43.1875 38.6875 43.023438 38.835938 42.839844 38.992188 C 42.648438 39.15625 42.464844 39.328125 42.28125 39.5 C 42.058594 39.707031 41.839844 39.910156 41.609375 40.105469 C 41.429688 40.257812 41.265625 40.421875 41.101562 40.59375 C 40.742188 40.957031 40.355469 41.261719 39.875 41.4375 C 40.070312 41.203125 40.265625 40.980469 40.488281 40.769531 C 40.992188 40.269531 41.363281 39.722656 41.625 39.0625 C 41.648438 39.011719 41.667969 38.964844 41.691406 38.914062 C 41.925781 38.328125 41.910156 37.746094 41.902344 37.128906 C 41.902344 36.945312 41.902344 36.761719 41.902344 36.582031 C 41.902344 34.675781 41.148438 33.523438 39.832031 32.203125 C 39.664062 32.035156 39.496094 31.867188 39.328125 31.703125 C 38.550781 30.933594 38.550781 30.933594 38.214844 30.539062 C 38.097656 30.40625 37.972656 30.28125 37.84375 30.15625 C 37.628906 29.945312 37.429688 29.726562 37.234375 29.496094 C 37.117188 29.367188 37 29.246094 36.875 29.125 C 36.679688 28.929688 36.496094 28.730469 36.316406 28.519531 C 35.925781 28.078125 35.527344 27.644531 35.105469 27.230469 C 35.003906 27.128906 34.90625 27.019531 34.8125 26.90625 C 34.507812 26.554688 34.175781 26.234375 33.84375 25.90625 C 33.71875 25.78125 33.59375 25.65625 33.46875 25.53125 C 33.410156 25.480469 33.355469 25.425781 33.300781 25.367188 C 33.167969 25.234375 33.042969 25.09375 32.917969 24.949219 C 32.671875 24.664062 32.40625 24.402344 32.140625 24.136719 C 32.089844 24.085938 32.039062 24.035156 31.984375 23.984375 C 31.824219 23.820312 31.660156 23.660156 31.5 23.5 C 31.285156 23.289062 31.074219 23.074219 30.859375 22.863281 C 30.8125 22.816406 30.761719 22.769531 30.714844 22.71875 C 30.457031 22.464844 30.210938 22.203125 29.976562 21.925781 C 29.828125 21.757812 29.667969 21.597656 29.507812 21.4375 C 29.472656 21.40625 29.441406 21.375 29.40625 21.339844 C 29.300781 21.238281 29.199219 21.132812 29.09375 21.03125 C 28.027344 19.976562 28.027344 19.976562 27.75 19.5625 C 27.855469 19.46875 27.957031 19.371094 28.0625 19.277344 C 28.109375 19.234375 28.109375 19.234375 28.15625 19.191406 C 28.332031 19.03125 28.511719 18.875 28.691406 18.71875 C 28.945312 18.5 29.175781 18.261719 29.410156 18.027344 C 29.582031 17.855469 29.761719 17.699219 29.945312 17.539062 C 30.0625 17.4375 30.171875 17.328125 30.28125 17.21875 C 30.464844 17.03125 30.65625 16.863281 30.851562 16.691406 C 31.035156 16.53125 31.210938 16.371094 31.386719 16.207031 C 31.4375 16.160156 31.4375 16.160156 31.492188 16.109375 C 31.597656 16.011719 31.707031 15.910156 31.8125 15.8125 C 32.652344 15.035156 32.652344 15.035156 33.039062 14.699219 C 33.089844 14.65625 33.140625 14.609375 33.1875 14.5625 Z M 33.1875 14.5625 "/>
<path style=" stroke:none;fill-rule:nonzero;fill:rgb(24.313726%,12.156863%,57.254905%);fill-opacity:1;" d="M 24.625 34.5625 C 25.550781 34.558594 26.476562 34.550781 27.402344 34.550781 C 27.832031 34.546875 28.261719 34.546875 28.691406 34.542969 C 29.105469 34.539062 29.519531 34.539062 29.933594 34.539062 C 30.09375 34.539062 30.25 34.539062 30.410156 34.535156 C 30.628906 34.535156 30.851562 34.535156 31.074219 34.535156 C 31.171875 34.53125 31.171875 34.53125 31.269531 34.53125 C 32.847656 34.539062 33.910156 35.953125 34.941406 36.976562 C 35.070312 37.109375 35.203125 37.238281 35.335938 37.367188 C 35.5 37.527344 35.660156 37.6875 35.820312 37.84375 C 35.882812 37.90625 35.941406 37.964844 36.003906 38.027344 C 36.089844 38.109375 36.175781 38.191406 36.257812 38.277344 C 36.308594 38.324219 36.355469 38.371094 36.40625 38.421875 C 36.5 38.5625 36.5 38.5625 36.488281 38.730469 C 36.394531 38.996094 36.191406 39.171875 36 39.375 C 35.964844 39.417969 35.929688 39.457031 35.890625 39.5 C 35.316406 40.128906 34.535156 40.503906 33.6875 40.550781 C 31.945312 40.628906 30.644531 40.324219 29.339844 39.136719 C 28.898438 38.726562 28.476562 38.296875 28.050781 37.867188 C 27.742188 37.554688 27.433594 37.246094 27.101562 36.960938 C 26.976562 36.855469 26.863281 36.742188 26.75 36.625 C 26.546875 36.421875 26.339844 36.230469 26.121094 36.042969 C 26.003906 35.941406 25.890625 35.832031 25.78125 35.71875 C 25.515625 35.445312 25.226562 35.199219 24.933594 34.957031 C 24.894531 34.921875 24.855469 34.890625 24.8125 34.855469 C 24.777344 34.824219 24.742188 34.796875 24.703125 34.765625 C 24.625 34.6875 24.625 34.6875 24.625 34.5625 Z M 24.625 34.5625 "/>
<path style=" stroke:none;fill-rule:nonzero;fill:rgb(21.176471%,72.941178%,92.941177%);fill-opacity:1;" d="M 23 27.25 C 23.132812 27.308594 23.132812 27.308594 23.25 27.375 C 23.25 27.417969 23.25 27.457031 23.25 27.5 C 23.3125 27.519531 23.375 27.542969 23.4375 27.5625 C 23.542969 27.652344 23.542969 27.652344 23.625 27.75 C 23.625 27.792969 23.625 27.832031 23.625 27.875 C 23.6875 27.894531 23.75 27.917969 23.8125 27.9375 C 23.855469 27.996094 23.855469 27.996094 23.898438 28.054688 C 23.992188 28.195312 23.992188 28.195312 24.132812 28.261719 C 24.378906 28.414062 24.5625 28.609375 24.765625 28.8125 C 24.808594 28.855469 24.851562 28.898438 24.894531 28.941406 C 24.984375 29.035156 25.078125 29.125 25.167969 29.214844 C 25.304688 29.355469 25.441406 29.492188 25.578125 29.628906 C 25.667969 29.71875 25.753906 29.804688 25.84375 29.894531 C 25.902344 29.957031 25.902344 29.957031 25.964844 30.019531 C 26.160156 30.214844 26.347656 30.410156 26.527344 30.621094 C 26.769531 30.902344 27.03125 31.164062 27.296875 31.425781 C 27.402344 31.527344 27.507812 31.632812 27.609375 31.734375 C 27.773438 31.894531 27.9375 32.058594 28.097656 32.21875 C 28.257812 32.375 28.414062 32.53125 28.570312 32.6875 C 28.621094 32.734375 28.671875 32.785156 28.722656 32.832031 C 28.765625 32.878906 28.8125 32.921875 28.855469 32.96875 C 28.898438 33.007812 28.9375 33.046875 28.976562 33.089844 C 29.0625 33.1875 29.0625 33.1875 29.0625 33.3125 C 29.117188 33.339844 29.117188 33.339844 29.175781 33.363281 C 29.308594 33.433594 29.410156 33.511719 29.523438 33.605469 C 30.160156 34.085938 30.855469 34.328125 31.625 34.5 C 31.625 34.519531 31.625 34.542969 31.625 34.5625 C 30.714844 34.585938 29.808594 34.605469 28.898438 34.621094 C 28.476562 34.628906 28.054688 34.636719 27.632812 34.648438 C 27.222656 34.660156 26.816406 34.667969 26.410156 34.675781 C 26.253906 34.675781 26.097656 34.679688 25.941406 34.6875 C 24.597656 34.730469 24.597656 34.730469 24.222656 34.390625 C 24.089844 34.25 23.980469 34.097656 23.875 33.9375 C 23.785156 33.828125 23.695312 33.71875 23.601562 33.613281 C 22.945312 32.761719 22.730469 32.007812 22.734375 30.9375 C 22.734375 30.847656 22.734375 30.757812 22.734375 30.667969 C 22.734375 30.476562 22.734375 30.289062 22.734375 30.097656 C 22.734375 29.855469 22.734375 29.617188 22.734375 29.375 C 22.734375 29.1875 22.734375 29 22.734375 28.8125 C 22.734375 28.722656 22.734375 28.632812 22.734375 28.542969 C 22.734375 28.421875 22.734375 28.296875 22.734375 28.171875 C 22.734375 28.097656 22.734375 28.027344 22.734375 27.957031 C 22.75 27.726562 22.796875 27.53125 22.875 27.3125 C 22.917969 27.292969 22.957031 27.269531 23 27.25 Z M 23 27.25 "/>
<path style=" stroke:none;fill-rule:nonzero;fill:rgb(20.784314%,19.607843%,67.450982%);fill-opacity:1;" d="M 33.5 15.375 C 33.625 15.375 33.625 15.375 33.703125 15.453125 C 33.734375 15.488281 33.765625 15.527344 33.796875 15.566406 C 34.585938 16.496094 35.464844 17.347656 36.332031 18.210938 C 36.5 18.375 36.664062 18.542969 36.832031 18.710938 C 37.160156 19.035156 37.484375 19.363281 37.8125 19.6875 C 37.769531 19.730469 37.730469 19.769531 37.6875 19.8125 C 35.621094 17.746094 35.621094 17.746094 35.492188 17.617188 C 35.421875 17.546875 35.351562 17.476562 35.277344 17.402344 C 35.148438 17.273438 35.015625 17.140625 34.886719 17.007812 C 34.828125 16.949219 34.765625 16.886719 34.707031 16.828125 C 34.675781 16.796875 34.644531 16.765625 34.613281 16.734375 C 34.449219 16.566406 34.449219 16.566406 34.25 16.4375 C 34.25 16.394531 34.25 16.355469 34.25 16.3125 C 34.199219 16.296875 34.152344 16.28125 34.101562 16.265625 C 33.917969 16.179688 33.882812 16.125 33.8125 15.9375 C 33.761719 16.15625 33.742188 16.359375 33.742188 16.585938 C 33.742188 16.652344 33.746094 16.71875 33.746094 16.785156 C 33.746094 16.855469 33.746094 16.925781 33.746094 17 C 33.746094 17.070312 33.746094 17.144531 33.746094 17.21875 C 33.746094 17.449219 33.75 17.683594 33.75 17.914062 C 33.75 18.21875 33.753906 18.523438 33.753906 18.832031 C 33.753906 18.902344 33.753906 18.972656 33.753906 19.042969 C 33.753906 19.109375 33.757812 19.175781 33.757812 19.242188 C 33.757812 19.300781 33.757812 19.355469 33.757812 19.417969 C 33.75 19.5625 33.75 19.5625 33.6875 19.75 C 33.597656 20.773438 34 21.652344 34.625 22.4375 C 34.65625 22.476562 34.6875 22.519531 34.722656 22.5625 C 34.867188 22.746094 34.867188 22.746094 35.0625 22.875 C 35.101562 22.945312 35.101562 22.945312 35.144531 23.019531 C 35.261719 23.203125 35.390625 23.304688 35.5625 23.4375 C 35.5625 23.480469 35.5625 23.519531 35.5625 23.5625 C 35.625 23.582031 35.6875 23.605469 35.75 23.625 C 35.8125 23.6875 35.875 23.75 35.9375 23.8125 C 35.980469 23.832031 36.019531 23.855469 36.0625 23.875 C 36.0625 23.917969 36.0625 23.957031 36.0625 24 C 36.105469 24 36.144531 24 36.1875 24 C 36.273438 24.101562 36.355469 24.207031 36.4375 24.3125 C 36.539062 24.417969 36.644531 24.519531 36.75 24.625 C 36.816406 24.691406 36.882812 24.757812 36.945312 24.824219 C 37.140625 25.023438 37.335938 25.21875 37.53125 25.417969 C 37.613281 25.5 37.699219 25.585938 37.78125 25.671875 C 37.902344 25.792969 38.023438 25.917969 38.148438 26.039062 C 38.183594 26.078125 38.21875 26.117188 38.257812 26.15625 C 38.449219 26.347656 38.605469 26.488281 38.875 26.5625 C 38.917969 26.5625 38.957031 26.5625 39 26.5625 C 38.96875 26.75 38.96875 26.75 38.9375 26.9375 C 38.972656 26.953125 39.007812 26.96875 39.046875 26.984375 C 39.207031 27.074219 39.3125 27.175781 39.441406 27.304688 C 39.492188 27.355469 39.542969 27.40625 39.59375 27.457031 C 39.648438 27.511719 39.699219 27.5625 39.753906 27.621094 C 39.808594 27.675781 39.867188 27.730469 39.921875 27.789062 C 40.070312 27.9375 40.214844 28.085938 40.363281 28.234375 C 40.570312 28.441406 40.773438 28.648438 40.980469 28.855469 C 41.089844 28.96875 41.199219 29.078125 41.308594 29.1875 C 41.578125 29.460938 41.851562 29.722656 42.144531 29.972656 C 42.292969 30.097656 42.425781 30.238281 42.5625 30.375 C 42.667969 30.457031 42.769531 30.542969 42.875 30.625 C 43.023438 30.757812 43.058594 30.804688 43.125 31 C 43.167969 31.019531 43.207031 31.042969 43.25 31.0625 C 43.230469 31.125 43.207031 31.1875 43.1875 31.25 C 43.074219 31.136719 42.957031 31.027344 42.84375 30.914062 C 42.8125 30.882812 42.777344 30.851562 42.746094 30.816406 C 42.660156 30.734375 42.578125 30.648438 42.5 30.5625 C 42.5 30.519531 42.5 30.480469 42.5 30.4375 C 42.464844 30.421875 42.429688 30.40625 42.390625 30.390625 C 42.222656 30.296875 42.113281 30.1875 41.976562 30.054688 C 41.921875 30 41.871094 29.945312 41.816406 29.890625 C 41.757812 29.832031 41.699219 29.773438 41.640625 29.714844 C 41.582031 29.652344 41.519531 29.59375 41.460938 29.53125 C 41.304688 29.375 41.144531 29.214844 40.988281 29.054688 C 40.734375 28.800781 40.484375 28.546875 40.230469 28.292969 C 40.144531 28.203125 40.058594 28.117188 39.96875 28.027344 C 39.691406 27.746094 39.410156 27.480469 39.109375 27.222656 C 38.953125 27.085938 38.820312 26.933594 38.683594 26.78125 C 38.308594 26.363281 37.910156 25.964844 37.515625 25.566406 C 37.394531 25.449219 37.273438 25.328125 37.15625 25.207031 C 36.816406 24.871094 36.476562 24.535156 36.113281 24.222656 C 35.480469 23.671875 34.878906 23.046875 34.375 22.375 C 34.335938 22.324219 34.296875 22.273438 34.253906 22.21875 C 33.765625 21.5625 33.554688 20.914062 33.550781 20.101562 C 33.550781 20.050781 33.546875 19.996094 33.546875 19.945312 C 33.546875 19.777344 33.542969 19.609375 33.542969 19.441406 C 33.542969 19.324219 33.539062 19.207031 33.539062 19.089844 C 33.535156 18.78125 33.53125 18.472656 33.527344 18.164062 C 33.527344 17.851562 33.523438 17.539062 33.519531 17.222656 C 33.511719 16.605469 33.507812 15.992188 33.5 15.375 Z M 33.5 15.375 "/>
<path style=" stroke:none;fill-rule:nonzero;fill:rgb(27.058825%,16.862746%,50.588238%);fill-opacity:1;" d="M 28.25 20.1875 C 28.65625 20.519531 29.023438 20.886719 29.390625 21.257812 C 29.5 21.367188 29.609375 21.476562 29.71875 21.585938 C 29.789062 21.65625 29.859375 21.726562 29.929688 21.796875 C 29.960938 21.828125 29.992188 21.859375 30.027344 21.894531 C 30.199219 22.066406 30.363281 22.242188 30.519531 22.425781 C 30.765625 22.710938 31.03125 22.972656 31.296875 23.238281 C 31.347656 23.289062 31.398438 23.339844 31.453125 23.390625 C 31.613281 23.554688 31.777344 23.714844 31.9375 23.875 C 32.152344 24.085938 32.363281 24.300781 32.578125 24.511719 C 32.652344 24.582031 32.652344 24.582031 32.722656 24.65625 C 32.980469 24.914062 33.226562 25.175781 33.464844 25.449219 C 33.605469 25.609375 33.753906 25.757812 33.90625 25.90625 C 33.933594 25.9375 33.964844 25.96875 33.996094 26 C 34.089844 26.09375 34.1875 26.1875 34.28125 26.28125 C 34.648438 26.644531 35.011719 27.003906 35.347656 27.394531 C 35.464844 27.53125 35.589844 27.65625 35.71875 27.78125 C 35.925781 27.988281 36.121094 28.199219 36.3125 28.421875 C 36.835938 29.019531 37.386719 29.589844 37.929688 30.164062 C 38.09375 30.339844 38.257812 30.511719 38.421875 30.6875 C 38.796875 31.09375 39.175781 31.488281 39.566406 31.878906 C 39.597656 31.910156 39.632812 31.945312 39.667969 31.976562 C 39.832031 32.140625 39.996094 32.304688 40.160156 32.464844 C 40.664062 32.960938 41.128906 33.472656 41.46875 34.09375 C 41.492188 34.132812 41.511719 34.167969 41.535156 34.207031 C 41.6875 34.480469 41.6875 34.480469 41.6875 34.625 C 41.574219 34.589844 41.574219 34.589844 41.4375 34.5 C 41.390625 34.398438 41.347656 34.296875 41.304688 34.191406 C 41.082031 33.679688 40.6875 33.277344 40.3125 32.875 C 40.25 32.804688 40.1875 32.738281 40.125 32.667969 C 39.652344 32.15625 39.164062 31.660156 38.667969 31.167969 C 38.402344 30.90625 38.148438 30.640625 37.90625 30.355469 C 37.816406 30.257812 37.726562 30.164062 37.628906 30.070312 C 37.5 29.9375 37.5 29.9375 37.5 29.8125 C 37.457031 29.8125 37.417969 29.8125 37.375 29.8125 C 37.28125 29.71875 37.28125 29.71875 37.175781 29.589844 C 36.988281 29.367188 36.792969 29.164062 36.582031 28.964844 C 36.5 28.875 36.5 28.875 36.5 28.75 C 36.457031 28.75 36.417969 28.75 36.375 28.75 C 36.285156 28.660156 36.285156 28.660156 36.179688 28.535156 C 36.140625 28.488281 36.101562 28.445312 36.0625 28.398438 C 36.023438 28.347656 35.980469 28.300781 35.9375 28.25 C 35.847656 28.148438 35.761719 28.042969 35.671875 27.941406 C 35.632812 27.894531 35.589844 27.847656 35.550781 27.800781 C 35.4375 27.671875 35.4375 27.671875 35.25 27.625 C 35.1875 27.519531 35.125 27.417969 35.0625 27.3125 C 34.953125 27.195312 34.839844 27.082031 34.726562 26.972656 C 34.488281 26.742188 34.269531 26.507812 34.0625 26.25 C 33.917969 26.097656 33.777344 25.957031 33.605469 25.832031 C 33.554688 25.792969 33.554688 25.792969 33.5 25.75 C 33.5 25.707031 33.5 25.667969 33.5 25.625 C 33.457031 25.625 33.417969 25.625 33.375 25.625 C 33.277344 25.527344 33.277344 25.527344 33.167969 25.398438 C 33.128906 25.351562 33.089844 25.308594 33.050781 25.261719 C 32.957031 25.148438 32.863281 25.035156 32.773438 24.921875 C 32.632812 24.75 32.632812 24.75 32.476562 24.632812 C 32.335938 24.519531 32.234375 24.414062 32.121094 24.277344 C 31.859375 23.976562 31.582031 23.699219 31.300781 23.421875 C 31.246094 23.367188 31.191406 23.316406 31.136719 23.257812 C 30.96875 23.089844 30.796875 22.917969 30.625 22.75 C 30.398438 22.527344 30.175781 22.300781 29.949219 22.078125 C 29.898438 22.027344 29.847656 21.976562 29.792969 21.925781 C 29.53125 21.660156 29.273438 21.394531 29.03125 21.109375 C 28.855469 20.90625 28.664062 20.726562 28.472656 20.542969 C 28.394531 20.46875 28.324219 20.390625 28.25 20.3125 C 28.25 20.269531 28.25 20.230469 28.25 20.1875 Z M 28.25 20.1875 "/>
<path style=" stroke:none;fill-rule:nonzero;fill:rgb(32.941177%,19.215687%,54.11765%);fill-opacity:1;" d="M 24.6875 22.5625 C 24.730469 22.5625 24.769531 22.5625 24.8125 22.5625 C 24.8125 22.625 24.8125 22.6875 24.8125 22.75 C 24.894531 22.75 24.976562 22.75 25.0625 22.75 C 25.082031 22.875 25.105469 22.996094 25.125 23.125 C 25.167969 23.125 25.207031 23.125 25.25 23.125 C 25.285156 23.191406 25.316406 23.257812 25.351562 23.324219 C 25.449219 23.496094 25.546875 23.613281 25.703125 23.738281 C 25.761719 23.785156 25.816406 23.828125 25.875 23.875 C 25.875 23.917969 25.875 23.957031 25.875 24 C 25.917969 24 25.957031 24 26 24 C 26 24.042969 26 24.082031 26 24.125 C 26.042969 24.125 26.082031 24.125 26.125 24.125 C 26.210938 24.210938 26.210938 24.210938 26.3125 24.335938 C 26.699219 24.789062 27.125 25.203125 27.578125 25.59375 C 27.726562 25.722656 27.867188 25.855469 28 26 C 28 26.042969 28 26.082031 28 26.125 C 28.0625 26.144531 28.125 26.167969 28.1875 26.1875 C 28.273438 26.277344 28.273438 26.277344 28.371094 26.394531 C 28.574219 26.632812 28.785156 26.855469 29.003906 27.074219 C 29.050781 27.121094 29.050781 27.121094 29.097656 27.167969 C 29.253906 27.324219 29.414062 27.46875 29.585938 27.609375 C 29.640625 27.65625 29.695312 27.703125 29.75 27.75 C 29.75 27.792969 29.75 27.832031 29.75 27.875 C 29.789062 27.890625 29.828125 27.910156 29.871094 27.925781 C 30 28 30 28 30.0625 28.1875 C 30.105469 28.1875 30.144531 28.1875 30.1875 28.1875 C 30.1875 28.230469 30.1875 28.269531 30.1875 28.3125 C 30.222656 28.328125 30.257812 28.34375 30.292969 28.359375 C 30.46875 28.453125 30.585938 28.570312 30.722656 28.710938 C 30.78125 28.765625 30.835938 28.824219 30.894531 28.882812 C 30.957031 28.945312 31.015625 29.003906 31.078125 29.066406 C 31.140625 29.132812 31.203125 29.195312 31.265625 29.257812 C 31.433594 29.425781 31.601562 29.59375 31.765625 29.761719 C 32.03125 30.027344 32.296875 30.296875 32.5625 30.5625 C 32.652344 30.65625 32.746094 30.75 32.839844 30.84375 C 33.113281 31.117188 33.382812 31.386719 33.6875 31.625 C 33.667969 31.667969 33.644531 31.707031 33.625 31.75 C 33.582031 31.730469 33.542969 31.707031 33.5 31.6875 C 33.5 31.644531 33.5 31.605469 33.5 31.5625 C 33.445312 31.539062 33.445312 31.539062 33.390625 31.515625 C 33.238281 31.429688 33.136719 31.339844 33.015625 31.21875 C 32.972656 31.171875 32.929688 31.128906 32.882812 31.082031 C 32.835938 31.035156 32.785156 30.984375 32.738281 30.933594 C 32.6875 30.882812 32.636719 30.835938 32.585938 30.78125 C 32.425781 30.621094 32.269531 30.460938 32.109375 30.300781 C 31.953125 30.140625 31.792969 29.980469 31.636719 29.820312 C 31.535156 29.722656 31.4375 29.625 31.339844 29.523438 C 31.292969 29.476562 31.25 29.433594 31.203125 29.386719 C 31.144531 29.324219 31.144531 29.324219 31.082031 29.265625 C 30.960938 29.148438 30.835938 29.039062 30.707031 28.925781 C 30.40625 28.664062 30.125 28.382812 29.839844 28.097656 C 29.785156 28.042969 29.726562 27.984375 29.667969 27.925781 C 29.511719 27.769531 29.355469 27.613281 29.199219 27.457031 C 29.039062 27.292969 28.875 27.128906 28.710938 26.964844 C 28.402344 26.65625 28.09375 26.347656 27.785156 26.039062 C 27.433594 25.6875 27.082031 25.335938 26.730469 24.984375 C 26.007812 24.261719 25.285156 23.535156 24.5625 22.8125 C 24.605469 22.730469 24.644531 22.648438 24.6875 22.5625 Z M 24.6875 22.5625 "/>
<path style=" stroke:none;fill-rule:nonzero;fill:rgb(32.156864%,60.000002%,91.37255%);fill-opacity:1;" d="M 27.25 31.4375 C 27.625 31.746094 27.964844 32.078125 28.308594 32.421875 C 28.402344 32.515625 28.5 32.613281 28.59375 32.707031 C 28.65625 32.765625 28.714844 32.828125 28.777344 32.886719 C 28.832031 32.941406 28.886719 32.996094 28.941406 33.054688 C 29.0625 33.1875 29.0625 33.1875 29.0625 33.3125 C 29.117188 33.339844 29.117188 33.339844 29.175781 33.363281 C 29.308594 33.433594 29.410156 33.511719 29.523438 33.605469 C 30.160156 34.085938 30.855469 34.328125 31.625 34.5 C 31.625 34.519531 31.625 34.542969 31.625 34.5625 C 28.128906 34.59375 28.128906 34.59375 24.5625 34.625 C 24.542969 34.582031 24.519531 34.542969 24.5 34.5 C 24.558594 34.5 24.613281 34.5 24.671875 34.5 C 25.214844 34.492188 25.757812 34.484375 26.304688 34.480469 C 26.582031 34.476562 26.859375 34.472656 27.140625 34.46875 C 27.410156 34.464844 27.679688 34.460938 27.953125 34.460938 C 28.054688 34.457031 28.15625 34.457031 28.257812 34.457031 C 28.832031 34.449219 29.398438 34.433594 29.972656 34.390625 C 30.179688 34.375 30.363281 34.367188 30.5625 34.4375 C 30.5625 34.394531 30.5625 34.355469 30.5625 34.3125 C 30.527344 34.304688 30.496094 34.296875 30.460938 34.289062 C 29.917969 34.140625 29.480469 33.832031 29.078125 33.445312 C 28.9375 33.308594 28.9375 33.308594 28.761719 33.183594 C 28.71875 33.144531 28.671875 33.101562 28.625 33.0625 C 28.625 33 28.625 32.9375 28.625 32.875 C 28.582031 32.875 28.542969 32.875 28.5 32.875 C 28.457031 32.832031 28.417969 32.792969 28.375 32.75 C 28.3125 32.6875 28.3125 32.6875 28.246094 32.625 C 28.035156 32.414062 27.835938 32.1875 27.636719 31.960938 C 27.546875 31.863281 27.453125 31.769531 27.359375 31.675781 C 27.25 31.5625 27.25 31.5625 27.25 31.4375 Z M 27.25 31.4375 "/>
<path style=" stroke:none;fill-rule:nonzero;fill:rgb(26.666668%,23.529412%,67.058825%);fill-opacity:1;" d="M 33.5 15.375 C 33.625 15.375 33.625 15.375 33.703125 15.453125 C 33.734375 15.488281 33.765625 15.527344 33.796875 15.566406 C 34.585938 16.496094 35.464844 17.347656 36.332031 18.210938 C 36.5 18.375 36.664062 18.542969 36.832031 18.710938 C 37.160156 19.035156 37.484375 19.363281 37.8125 19.6875 C 37.769531 19.730469 37.730469 19.769531 37.6875 19.8125 C 35.621094 17.746094 35.621094 17.746094 35.492188 17.617188 C 35.421875 17.546875 35.351562 17.476562 35.277344 17.402344 C 35.148438 17.273438 35.015625 17.140625 34.886719 17.007812 C 34.828125 16.949219 34.765625 16.886719 34.707031 16.828125 C 34.675781 16.796875 34.644531 16.765625 34.613281 16.734375 C 34.449219 16.566406 34.449219 16.566406 34.25 16.4375 C 34.25 16.394531 34.25 16.355469 34.25 16.3125 C 34.203125 16.300781 34.160156 16.292969 34.113281 16.28125 C 33.886719 16.160156 33.816406 16.015625 33.695312 15.792969 C 33.671875 15.757812 33.648438 15.722656 33.625 15.6875 C 33.582031 15.6875 33.542969 15.6875 33.5 15.6875 C 33.5 15.585938 33.5 15.480469 33.5 15.375 Z M 33.5 15.375 "/>
<path style=" stroke:none;fill-rule:nonzero;fill:rgb(51.372552%,23.921569%,78.039217%);fill-opacity:1;" d="M 40.4375 40.5625 C 40.5 40.582031 40.5625 40.605469 40.625 40.625 C 40.351562 40.949219 40.066406 41.265625 39.773438 41.574219 C 39.734375 41.617188 39.691406 41.660156 39.648438 41.707031 C 39.539062 41.824219 39.425781 41.945312 39.3125 42.0625 C 39.265625 42.113281 39.214844 42.164062 39.167969 42.21875 C 39.0625 42.3125 39.0625 42.3125 38.9375 42.3125 C 38.9375 42.355469 38.9375 42.394531 38.9375 42.4375 C 38.84375 42.527344 38.84375 42.527344 38.71875 42.632812 C 38.445312 42.867188 38.191406 43.113281 37.9375 43.367188 C 37.890625 43.414062 37.847656 43.460938 37.800781 43.503906 C 37.660156 43.648438 37.515625 43.789062 37.375 43.933594 C 37.277344 44.03125 37.179688 44.128906 37.082031 44.226562 C 36.847656 44.460938 36.609375 44.699219 36.375 44.9375 C 36.355469 44.855469 36.332031 44.773438 36.3125 44.6875 C 36.359375 44.648438 36.359375 44.648438 36.402344 44.609375 C 36.78125 44.285156 37.125 43.941406 37.46875 43.585938 C 37.511719 43.539062 37.554688 43.496094 37.597656 43.453125 C 37.636719 43.414062 37.675781 43.375 37.714844 43.335938 C 37.8125 43.25 37.8125 43.25 37.9375 43.25 C 37.953125 43.214844 37.964844 43.179688 37.980469 43.144531 C 38.085938 42.960938 38.222656 42.832031 38.375 42.6875 C 38.46875 42.59375 38.5625 42.5 38.65625 42.40625 C 38.703125 42.359375 38.753906 42.308594 38.804688 42.257812 C 38.882812 42.179688 38.960938 42.101562 39.035156 42.023438 C 39.171875 41.878906 39.246094 41.8125 39.4375 41.75 C 39.480469 41.667969 39.523438 41.585938 39.5625 41.5 C 39.660156 41.390625 39.660156 41.390625 39.769531 41.285156 C 39.808594 41.246094 39.847656 41.210938 39.886719 41.171875 C 39.925781 41.136719 39.960938 41.097656 40 41.0625 C 40.167969 40.898438 40.308594 40.757812 40.4375 40.5625 Z M 40.4375 40.5625 "/>
<path style=" stroke:none;fill-rule:nonzero;fill:rgb(30.980393%,16.470589%,48.627451%);fill-opacity:1;" d="M 28.25 20.1875 C 28.65625 20.519531 29.023438 20.886719 29.390625 21.257812 C 29.5 21.367188 29.609375 21.476562 29.71875 21.585938 C 29.789062 21.65625 29.859375 21.726562 29.929688 21.796875 C 29.960938 21.828125 29.992188 21.859375 30.027344 21.894531 C 30.199219 22.066406 30.359375 22.242188 30.519531 22.425781 C 30.769531 22.714844 31.039062 22.984375 31.3125 23.257812 C 31.390625 23.332031 31.390625 23.332031 31.46875 23.414062 C 31.636719 23.578125 31.800781 23.742188 31.964844 23.90625 C 32.078125 24.019531 32.191406 24.128906 32.300781 24.242188 C 32.578125 24.515625 32.851562 24.789062 33.125 25.0625 C 33.082031 25.105469 33.042969 25.144531 33 25.1875 C 32.976562 25.160156 32.953125 25.128906 32.929688 25.101562 C 32.785156 24.925781 32.648438 24.769531 32.472656 24.628906 C 32.332031 24.515625 32.234375 24.414062 32.121094 24.277344 C 31.859375 23.980469 31.582031 23.699219 31.300781 23.421875 C 31.246094 23.367188 31.191406 23.316406 31.136719 23.257812 C 30.96875 23.089844 30.796875 22.917969 30.625 22.75 C 30.398438 22.527344 30.175781 22.300781 29.949219 22.078125 C 29.898438 22.027344 29.847656 21.976562 29.792969 21.925781 C 29.53125 21.660156 29.273438 21.394531 29.03125 21.109375 C 28.855469 20.90625 28.664062 20.726562 28.472656 20.542969 C 28.394531 20.46875 28.324219 20.390625 28.25 20.3125 C 28.25 20.269531 28.25 20.230469 28.25 20.1875 Z M 28.25 20.1875 "/>
<path style=" stroke:none;fill-rule:nonzero;fill:rgb(26.666668%,29.803923%,69.411767%);fill-opacity:1;" d="M 38.8125 26.8125 C 38.855469 26.8125 38.894531 26.8125 38.9375 26.8125 C 38.9375 26.855469 38.9375 26.894531 38.9375 26.9375 C 38.992188 26.960938 38.992188 26.960938 39.046875 26.984375 C 39.207031 27.074219 39.3125 27.175781 39.441406 27.304688 C 39.492188 27.355469 39.542969 27.40625 39.59375 27.457031 C 39.648438 27.511719 39.699219 27.5625 39.753906 27.621094 C 39.835938 27.703125 39.835938 27.703125 39.921875 27.789062 C 40.070312 27.9375 40.214844 28.085938 40.363281 28.234375 C 40.570312 28.441406 40.773438 28.648438 40.980469 28.855469 C 41.089844 28.96875 41.199219 29.078125 41.308594 29.1875 C 41.578125 29.460938 41.851562 29.722656 42.144531 29.972656 C 42.292969 30.097656 42.425781 30.238281 42.5625 30.375 C 42.667969 30.457031 42.769531 30.542969 42.875 30.625 C 43.023438 30.757812 43.058594 30.804688 43.125 31 C 43.167969 31.019531 43.207031 31.042969 43.25 31.0625 C 43.21875 31.15625 43.21875 31.15625 43.1875 31.25 C 43.074219 31.136719 42.957031 31.027344 42.84375 30.914062 C 42.8125 30.882812 42.777344 30.851562 42.746094 30.816406 C 42.660156 30.734375 42.578125 30.648438 42.5 30.5625 C 42.5 30.519531 42.5 30.480469 42.5 30.4375 C 42.464844 30.421875 42.429688 30.40625 42.390625 30.390625 C 42.222656 30.296875 42.113281 30.1875 41.976562 30.054688 C 41.921875 30 41.871094 29.945312 41.816406 29.890625 C 41.757812 29.832031 41.699219 29.773438 41.640625 29.714844 C 41.582031 29.652344 41.519531 29.59375 41.460938 29.53125 C 41.304688 29.375 41.144531 29.214844 40.988281 29.054688 C 40.734375 28.800781 40.484375 28.546875 40.230469 28.292969 C 40.144531 28.203125 40.058594 28.117188 39.96875 28.027344 C 39.6875 27.746094 39.40625 27.472656 39.097656 27.214844 C 38.96875 27.097656 38.886719 26.96875 38.8125 26.8125 Z M 38.8125 26.8125 "/>
<path style=" stroke:none;fill-rule:nonzero;fill:rgb(71.372551%,91.764706%,95.686275%);fill-opacity:1;" d="M 22.6875 26.75 C 22.730469 26.75 22.769531 26.75 22.8125 26.75 C 22.886719 26.828125 22.886719 26.828125 22.980469 26.941406 C 23.355469 27.382812 23.777344 27.78125 24.1875 28.1875 C 24.125 28.207031 24.0625 28.230469 24 28.25 C 23.960938 28.199219 23.921875 28.148438 23.882812 28.097656 C 23.765625 27.933594 23.765625 27.933594 23.625 27.875 C 23.625 27.832031 23.625 27.792969 23.625 27.75 C 23.5625 27.730469 23.5 27.707031 23.4375 27.6875 C 23.355469 27.582031 23.269531 27.480469 23.1875 27.375 C 23.125 27.355469 23.0625 27.332031 23 27.3125 C 22.9375 27.34375 22.9375 27.34375 22.875 27.375 C 22.8125 27.640625 22.804688 27.898438 22.800781 28.171875 C 22.800781 28.210938 22.796875 28.25 22.796875 28.292969 C 22.796875 28.425781 22.792969 28.558594 22.792969 28.6875 C 22.792969 28.78125 22.789062 28.871094 22.789062 28.964844 C 22.785156 29.207031 22.78125 29.445312 22.777344 29.6875 C 22.777344 29.933594 22.773438 30.179688 22.769531 30.425781 C 22.761719 30.910156 22.757812 31.390625 22.75 31.875 C 22.730469 31.875 22.707031 31.875 22.6875 31.875 C 22.6875 30.183594 22.6875 28.492188 22.6875 26.75 Z M 22.6875 26.75 "/>
<path style=" stroke:none;fill-rule:nonzero;fill:rgb(19.607843%,10.980392%,42.745098%);fill-opacity:1;" d="M 34.875 37.0625 C 35.222656 37.207031 35.46875 37.503906 35.734375 37.765625 C 35.832031 37.863281 35.929688 37.957031 36.027344 38.050781 C 36.089844 38.113281 36.152344 38.175781 36.214844 38.234375 C 36.269531 38.289062 36.328125 38.347656 36.386719 38.402344 C 36.5 38.5625 36.5 38.5625 36.492188 38.730469 C 36.425781 38.902344 36.34375 39.007812 36.222656 39.144531 C 36.183594 39.1875 36.144531 39.230469 36.105469 39.277344 C 36 39.375 36 39.375 35.875 39.375 C 35.84375 39.28125 35.84375 39.28125 35.8125 39.1875 C 35.769531 39.144531 35.730469 39.105469 35.6875 39.0625 C 35.789062 38.703125 35.789062 38.703125 36 38.5625 C 36.0625 38.5625 36.125 38.5625 36.1875 38.5625 C 36.019531 38.230469 35.757812 37.992188 35.496094 37.734375 C 35.449219 37.6875 35.40625 37.644531 35.355469 37.59375 C 35.136719 37.363281 35.136719 37.363281 34.875 37.1875 C 34.875 37.144531 34.875 37.105469 34.875 37.0625 Z M 34.875 37.0625 "/>
<path style=" stroke:none;fill-rule:nonzero;fill:rgb(21.960784%,21.176471%,66.274512%);fill-opacity:1;" d="M 34.9375 22.875 C 34.980469 22.875 35.019531 22.875 35.0625 22.875 C 35.089844 22.921875 35.117188 22.96875 35.144531 23.015625 C 35.261719 23.203125 35.390625 23.300781 35.5625 23.4375 C 35.5625 23.480469 35.5625 23.519531 35.5625 23.5625 C 35.625 23.582031 35.6875 23.605469 35.75 23.625 C 35.8125 23.6875 35.875 23.75 35.9375 23.8125 C 35.980469 23.832031 36.019531 23.855469 36.0625 23.875 C 36.0625 23.917969 36.0625 23.957031 36.0625 24 C 36.105469 24 36.144531 24 36.1875 24 C 36.273438 24.101562 36.355469 24.207031 36.4375 24.3125 C 36.539062 24.417969 36.644531 24.519531 36.75 24.625 C 36.816406 24.691406 36.882812 24.757812 36.945312 24.824219 C 37.140625 25.023438 37.335938 25.21875 37.53125 25.417969 C 37.613281 25.5 37.699219 25.585938 37.78125 25.671875 C 37.902344 25.792969 38.023438 25.917969 38.148438 26.039062 C 38.183594 26.078125 38.21875 26.117188 38.257812 26.15625 C 38.449219 26.347656 38.605469 26.488281 38.875 26.5625 C 38.917969 26.5625 38.957031 26.5625 39 26.5625 C 38.980469 26.644531 38.957031 26.726562 38.9375 26.8125 C 38.722656 26.777344 38.621094 26.703125 38.464844 26.550781 C 38.425781 26.507812 38.382812 26.464844 38.339844 26.421875 C 38.292969 26.375 38.25 26.328125 38.203125 26.28125 C 38.15625 26.234375 38.109375 26.1875 38.058594 26.136719 C 37.910156 25.984375 37.757812 25.832031 37.609375 25.679688 C 37.460938 25.527344 37.3125 25.378906 37.160156 25.226562 C 37.070312 25.132812 36.976562 25.039062 36.882812 24.945312 C 36.636719 24.691406 36.378906 24.453125 36.109375 24.222656 C 35.875 24.015625 35.65625 23.796875 35.4375 23.578125 C 35.390625 23.53125 35.339844 23.484375 35.289062 23.433594 C 35.246094 23.390625 35.199219 23.34375 35.152344 23.296875 C 35.109375 23.257812 35.070312 23.214844 35.027344 23.175781 C 34.9375 23.0625 34.9375 23.0625 34.9375 22.875 Z M 34.9375 22.875 "/>
<path style=" stroke:none;fill-rule:nonzero;fill:rgb(41.960785%,66.666669%,87.058824%);fill-opacity:1;" d="M 27.25 31.4375 C 27.625 31.746094 27.964844 32.078125 28.308594 32.421875 C 28.402344 32.515625 28.5 32.613281 28.59375 32.707031 C 28.65625 32.765625 28.714844 32.828125 28.777344 32.886719 C 28.832031 32.941406 28.886719 32.996094 28.941406 33.054688 C 29.0625 33.1875 29.0625 33.1875 29.0625 33.3125 C 29.097656 33.328125 29.136719 33.347656 29.175781 33.363281 C 29.308594 33.433594 29.410156 33.511719 29.523438 33.605469 C 30.09375 34.039062 30.734375 34.300781 31.4375 34.4375 C 31.4375 34.457031 31.4375 34.480469 31.4375 34.5 C 31.003906 34.46875 31.003906 34.46875 30.5625 34.4375 C 30.5625 34.394531 30.5625 34.355469 30.5625 34.3125 C 30.527344 34.304688 30.496094 34.296875 30.460938 34.289062 C 29.917969 34.140625 29.480469 33.832031 29.078125 33.445312 C 28.9375 33.308594 28.9375 33.308594 28.761719 33.183594 C 28.695312 33.121094 28.695312 33.121094 28.625 33.0625 C 28.625 33 28.625 32.9375 28.625 32.875 C 28.582031 32.875 28.542969 32.875 28.5 32.875 C 28.457031 32.832031 28.417969 32.792969 28.375 32.75 C 28.3125 32.6875 28.3125 32.6875 28.246094 32.625 C 28.035156 32.414062 27.835938 32.1875 27.636719 31.960938 C 27.546875 31.863281 27.453125 31.769531 27.359375 31.675781 C 27.25 31.5625 27.25 31.5625 27.25 31.4375 Z M 27.25 31.4375 "/>
<path style=" stroke:none;fill-rule:nonzero;fill:rgb(30.588236%,15.294118%,49.411765%);fill-opacity:1;" d="M 24.6875 22.5625 C 24.730469 22.5625 24.769531 22.5625 24.8125 22.5625 C 24.8125 22.625 24.8125 22.6875 24.8125 22.75 C 24.894531 22.75 24.976562 22.75 25.0625 22.75 C 25.082031 22.875 25.105469 22.996094 25.125 23.125 C 25.167969 23.125 25.207031 23.125 25.25 23.125 C 25.285156 23.191406 25.316406 23.257812 25.351562 23.324219 C 25.449219 23.496094 25.546875 23.613281 25.703125 23.738281 C 25.761719 23.785156 25.816406 23.828125 25.875 23.875 C 25.875 23.917969 25.875 23.957031 25.875 24 C 25.917969 24 25.957031 24 26 24 C 26 24.042969 26 24.082031 26 24.125 C 26.042969 24.125 26.082031 24.125 26.125 24.125 C 26.210938 24.210938 26.210938 24.210938 26.3125 24.335938 C 26.710938 24.804688 27.148438 25.234375 27.625 25.625 C 27.582031 25.667969 27.542969 25.707031 27.5 25.75 C 26.53125 24.78125 25.5625 23.8125 24.5625 22.8125 C 24.605469 22.730469 24.644531 22.648438 24.6875 22.5625 Z M 24.6875 22.5625 "/>
<path style=" stroke:none;fill-rule:nonzero;fill:rgb(44.705883%,41.176471%,78.823531%);fill-opacity:1;" d="M 43.25 31.3125 C 43.515625 31.402344 43.621094 31.574219 43.75 31.8125 C 43.988281 32.449219 43.960938 33.101562 43.957031 33.769531 C 43.957031 33.886719 43.957031 34 43.953125 34.117188 C 43.953125 34.417969 43.953125 34.71875 43.949219 35.019531 C 43.949219 35.328125 43.949219 35.632812 43.945312 35.941406 C 43.945312 36.546875 43.941406 37.148438 43.9375 37.75 C 43.917969 37.75 43.894531 37.75 43.875 37.75 C 43.875 37.6875 43.875 37.625 43.875 37.558594 C 43.871094 36.964844 43.867188 36.371094 43.859375 35.777344 C 43.859375 35.472656 43.855469 35.167969 43.851562 34.863281 C 43.851562 34.566406 43.847656 34.273438 43.847656 33.976562 C 43.84375 33.863281 43.84375 33.753906 43.84375 33.640625 C 43.839844 32.898438 43.804688 32.277344 43.425781 31.617188 C 43.375 31.53125 43.375 31.53125 43.324219 31.441406 C 43.300781 31.398438 43.277344 31.355469 43.25 31.3125 Z M 43.25 31.3125 "/>
<path style=" stroke:none;fill-rule:nonzero;fill:rgb(29.019609%,22.352941%,73.725492%);fill-opacity:1;" d="M 46.375 35 C 46.417969 35 46.457031 35 46.5 35 C 46.1875 35.648438 45.640625 36.125 45.132812 36.625 C 45.054688 36.703125 44.972656 36.78125 44.894531 36.863281 C 44.699219 37.054688 44.507812 37.246094 44.3125 37.4375 C 44.269531 37.394531 44.230469 37.355469 44.1875 37.3125 C 44.1875 37.25 44.1875 37.1875 44.1875 37.125 C 44.234375 37.105469 44.28125 37.089844 44.328125 37.070312 C 44.472656 37.011719 44.609375 36.945312 44.75 36.875 C 44.75 36.832031 44.75 36.792969 44.75 36.75 C 44.792969 36.75 44.832031 36.75 44.875 36.75 C 44.875 36.707031 44.875 36.667969 44.875 36.625 C 44.917969 36.625 44.957031 36.625 45 36.625 C 45.019531 36.574219 45.019531 36.574219 45.039062 36.519531 C 45.15625 36.320312 45.320312 36.207031 45.5 36.0625 C 45.5625 35.980469 45.625 35.894531 45.6875 35.8125 C 45.730469 35.8125 45.769531 35.8125 45.8125 35.8125 C 45.8125 35.75 45.8125 35.6875 45.8125 35.625 C 45.855469 35.625 45.894531 35.625 45.9375 35.625 C 45.9375 35.582031 45.9375 35.542969 45.9375 35.5 C 45.980469 35.5 46.019531 35.5 46.0625 35.5 C 46.078125 35.464844 46.097656 35.429688 46.113281 35.390625 C 46.1875 35.246094 46.269531 35.125 46.375 35 Z M 46.375 35 "/>
<path style=" stroke:none;fill-rule:nonzero;fill:rgb(23.137255%,13.333334%,48.627451%);fill-opacity:1;" d="M 33.6875 31.75 C 33.875 31.835938 34.003906 31.929688 34.148438 32.078125 C 34.207031 32.132812 34.207031 32.132812 34.265625 32.195312 C 34.304688 32.234375 34.34375 32.273438 34.382812 32.316406 C 34.460938 32.398438 34.539062 32.476562 34.617188 32.558594 C 34.652344 32.59375 34.6875 32.628906 34.722656 32.664062 C 34.8125 32.757812 34.8125 32.757812 34.9375 32.8125 C 34.9375 32.855469 34.9375 32.894531 34.9375 32.9375 C 34.972656 32.953125 35.011719 32.972656 35.046875 32.988281 C 35.1875 33.0625 35.300781 33.144531 35.421875 33.25 C 35.480469 33.296875 35.480469 33.296875 35.539062 33.347656 C 35.625 33.4375 35.625 33.4375 35.625 33.5625 C 35.660156 33.578125 35.695312 33.597656 35.734375 33.613281 C 35.878906 33.6875 36 33.769531 36.125 33.875 C 36.125 33.917969 36.125 33.957031 36.125 34 C 36.160156 34.015625 36.199219 34.03125 36.234375 34.046875 C 36.398438 34.136719 36.488281 34.242188 36.609375 34.382812 C 36.648438 34.429688 36.6875 34.472656 36.726562 34.519531 C 36.769531 34.570312 36.769531 34.570312 36.8125 34.625 C 36.78125 34.6875 36.78125 34.6875 36.75 34.75 C 36.703125 34.6875 36.65625 34.628906 36.605469 34.566406 C 36.382812 34.308594 36.128906 34.105469 35.863281 33.894531 C 35.644531 33.714844 35.453125 33.519531 35.253906 33.320312 C 35.140625 33.203125 35.023438 33.097656 34.898438 32.992188 C 34.628906 32.761719 34.378906 32.507812 34.125 32.257812 C 34.082031 32.214844 34.039062 32.171875 33.996094 32.128906 C 33.957031 32.089844 33.914062 32.050781 33.875 32.007812 C 33.839844 31.972656 33.804688 31.9375 33.765625 31.898438 C 33.6875 31.8125 33.6875 31.8125 33.6875 31.75 Z M 33.6875 31.75 "/>
<path style=" stroke:none;fill-rule:nonzero;fill:rgb(25.490198%,14.901961%,49.019608%);fill-opacity:1;" d="M 30.625 28.75 C 30.828125 28.839844 30.964844 28.949219 31.121094 29.109375 C 31.167969 29.15625 31.214844 29.203125 31.265625 29.253906 C 31.316406 29.304688 31.367188 29.355469 31.417969 29.410156 C 31.472656 29.460938 31.523438 29.515625 31.578125 29.570312 C 31.75 29.742188 31.917969 29.910156 32.085938 30.082031 C 32.253906 30.253906 32.421875 30.421875 32.589844 30.589844 C 32.695312 30.695312 32.800781 30.804688 32.90625 30.910156 C 33.15625 31.160156 33.410156 31.402344 33.6875 31.625 C 33.65625 31.6875 33.65625 31.6875 33.625 31.75 C 33.5625 31.71875 33.5625 31.71875 33.5 31.6875 C 33.5 31.644531 33.5 31.605469 33.5 31.5625 C 33.464844 31.546875 33.425781 31.53125 33.390625 31.515625 C 33.238281 31.429688 33.136719 31.339844 33.015625 31.214844 C 32.96875 31.171875 32.921875 31.125 32.878906 31.078125 C 32.828125 31.03125 32.78125 30.980469 32.730469 30.929688 C 32.679688 30.878906 32.628906 30.828125 32.578125 30.777344 C 32.417969 30.617188 32.257812 30.453125 32.097656 30.292969 C 31.988281 30.183594 31.882812 30.078125 31.773438 29.96875 C 31.535156 29.726562 31.292969 29.484375 31.054688 29.242188 C 30.953125 29.140625 30.851562 29.039062 30.75 28.9375 C 30.625 28.8125 30.625 28.8125 30.625 28.75 Z M 30.625 28.75 "/>
<path style=" stroke:none;fill-rule:nonzero;fill:rgb(34.117648%,36.078432%,74.901962%);fill-opacity:1;" d="M 35.75 17.75 C 35.929688 17.832031 36.058594 17.917969 36.195312 18.054688 C 36.230469 18.09375 36.265625 18.128906 36.304688 18.164062 C 36.34375 18.203125 36.382812 18.242188 36.421875 18.285156 C 36.460938 18.324219 36.5 18.363281 36.542969 18.40625 C 36.667969 18.53125 36.796875 18.660156 36.921875 18.789062 C 37.007812 18.875 37.09375 18.960938 37.179688 19.050781 C 37.390625 19.261719 37.601562 19.472656 37.8125 19.6875 C 37.769531 19.730469 37.730469 19.769531 37.6875 19.8125 C 37.410156 19.539062 37.136719 19.265625 36.859375 18.992188 C 36.765625 18.898438 36.671875 18.804688 36.578125 18.710938 C 36.441406 18.578125 36.308594 18.445312 36.171875 18.3125 C 36.132812 18.269531 36.089844 18.226562 36.046875 18.183594 C 35.988281 18.125 35.988281 18.125 35.929688 18.066406 C 35.894531 18.03125 35.859375 18 35.824219 17.964844 C 35.75 17.875 35.75 17.875 35.75 17.75 Z M 35.75 17.75 "/>
<path style=" stroke:none;fill-rule:nonzero;fill:rgb(30.588236%,17.254902%,58.039218%);fill-opacity:1;" d="M 40.0625 32.5 C 40.320312 32.601562 40.488281 32.789062 40.671875 32.988281 C 40.703125 33.023438 40.738281 33.058594 40.773438 33.097656 C 41.175781 33.546875 41.511719 34.039062 41.6875 34.625 C 41.574219 34.589844 41.574219 34.589844 41.4375 34.5 C 41.390625 34.398438 41.347656 34.296875 41.304688 34.191406 C 41.0625 33.628906 40.609375 33.15625 40.171875 32.738281 C 40.0625 32.625 40.0625 32.625 40.0625 32.5 Z M 40.0625 32.5 "/>
<path style=" stroke:none;fill-rule:nonzero;fill:rgb(45.490196%,90.196079%,96.862745%);fill-opacity:1;" d="M 22.75 26.8125 C 23.089844 27.09375 23.402344 27.394531 23.714844 27.710938 C 23.761719 27.757812 23.804688 27.804688 23.851562 27.851562 C 23.964844 27.960938 24.078125 28.074219 24.1875 28.1875 C 24.125 28.207031 24.0625 28.230469 24 28.25 C 23.960938 28.199219 23.921875 28.148438 23.882812 28.097656 C 23.765625 27.933594 23.765625 27.933594 23.625 27.875 C 23.625 27.832031 23.625 27.792969 23.625 27.75 C 23.5625 27.730469 23.5 27.707031 23.4375 27.6875 C 23.355469 27.582031 23.269531 27.480469 23.1875 27.375 C 23.125 27.355469 23.0625 27.332031 23 27.3125 C 22.9375 27.34375 22.9375 27.34375 22.875 27.375 C 22.832031 27.5625 22.832031 27.5625 22.8125 27.75 C 22.792969 27.75 22.769531 27.75 22.75 27.75 C 22.75 27.441406 22.75 27.132812 22.75 26.8125 Z M 22.75 26.8125 "/>
<path style=" stroke:none;fill-rule:nonzero;fill:rgb(24.705882%,20%,74.117649%);fill-opacity:1;" d="M 43.9375 33.375 C 43.957031 33.375 43.980469 33.375 44 33.375 C 44.019531 34.714844 44.042969 36.054688 44.0625 37.4375 C 44.105469 37.4375 44.144531 37.4375 44.1875 37.4375 C 44.078125 37.679688 44.078125 37.679688 43.9375 37.75 C 43.9375 36.304688 43.9375 34.863281 43.9375 33.375 Z M 43.9375 33.375 "/>
<path style=" stroke:none;fill-rule:nonzero;fill:rgb(38.431373%,21.568628%,53.725493%);fill-opacity:1;" d="M 28.25 20.1875 C 28.542969 20.429688 28.816406 20.683594 29.085938 20.953125 C 29.121094 20.988281 29.15625 21.027344 29.191406 21.0625 C 29.304688 21.175781 29.414062 21.285156 29.527344 21.398438 C 29.605469 21.476562 29.679688 21.550781 29.757812 21.628906 C 29.941406 21.8125 30.128906 22 30.3125 22.1875 C 30.269531 22.230469 30.230469 22.269531 30.1875 22.3125 C 29.375 21.511719 29.375 21.511719 29.050781 21.128906 C 28.867188 20.921875 28.671875 20.734375 28.472656 20.542969 C 28.394531 20.46875 28.324219 20.390625 28.25 20.3125 C 28.25 20.269531 28.25 20.230469 28.25 20.1875 Z M 28.25 20.1875 "/>
<path style=" stroke:none;fill-rule:nonzero;fill:rgb(48.627451%,20.392157%,75.686276%);fill-opacity:1;" d="M 34.6875 46.3125 C 34.75 46.332031 34.8125 46.355469 34.875 46.375 C 34.402344 46.847656 33.925781 47.324219 33.4375 47.8125 C 33.394531 47.769531 33.355469 47.730469 33.3125 47.6875 C 33.386719 47.597656 33.464844 47.503906 33.542969 47.414062 C 33.585938 47.363281 33.628906 47.3125 33.671875 47.261719 C 33.8125 47.125 33.8125 47.125 33.980469 47.058594 C 34.027344 47.039062 34.078125 47.019531 34.125 47 C 34.164062 46.878906 34.164062 46.878906 34.1875 46.75 C 34.296875 46.628906 34.296875 46.628906 34.429688 46.511719 C 34.472656 46.472656 34.515625 46.433594 34.5625 46.394531 C 34.601562 46.367188 34.644531 46.339844 34.6875 46.3125 Z M 34.6875 46.3125 "/>
<path style=" stroke:none;fill-rule:nonzero;fill:rgb(86.666667%,83.529413%,94.509804%);fill-opacity:1;" d="M 41.125 40 C 41.144531 40.0625 41.167969 40.125 41.1875 40.1875 C 40.886719 40.703125 40.503906 41.121094 40 41.4375 C 39.957031 41.417969 39.917969 41.394531 39.875 41.375 C 39.933594 41.316406 39.992188 41.261719 40.054688 41.203125 C 40.628906 40.636719 40.628906 40.636719 41.125 40 Z M 41.125 40 "/>
<path style=" stroke:none;fill-rule:nonzero;fill:rgb(45.490196%,17.254902%,73.725492%);fill-opacity:1;" d="M 41.4375 39.25 C 41.480469 39.292969 41.519531 39.332031 41.5625 39.375 C 41.3125 39.828125 41.0625 40.261719 40.6875 40.625 C 40.667969 40.625 40.644531 40.625 40.625 40.625 C 40.625 40.480469 40.625 40.335938 40.625 40.1875 C 40.664062 40.167969 40.703125 40.152344 40.746094 40.132812 C 40.882812 40.074219 40.882812 40.074219 40.9375 39.9375 C 40.980469 39.9375 41.019531 39.9375 41.0625 39.9375 C 41.042969 39.875 41.019531 39.8125 41 39.75 C 41.050781 39.703125 41.097656 39.65625 41.148438 39.605469 C 41.316406 39.441406 41.316406 39.441406 41.4375 39.25 Z M 41.4375 39.25 "/>
<path style=" stroke:none;fill-rule:nonzero;fill:rgb(35.294119%,15.294118%,51.372552%);fill-opacity:1;" d="M 24.6875 22.5625 C 24.730469 22.5625 24.769531 22.5625 24.8125 22.5625 C 24.8125 22.625 24.8125 22.6875 24.8125 22.75 C 24.894531 22.75 24.976562 22.75 25.0625 22.75 C 25.082031 22.875 25.105469 22.996094 25.125 23.125 C 25.167969 23.125 25.207031 23.125 25.25 23.125 C 25.5 23.539062 25.5 23.539062 25.5 23.75 C 25.191406 23.441406 24.882812 23.132812 24.5625 22.8125 C 24.605469 22.730469 24.644531 22.648438 24.6875 22.5625 Z M 24.6875 22.5625 "/>
<path style=" stroke:none;fill-rule:nonzero;fill:rgb(34.509805%,42.745098%,80.784315%);fill-opacity:1;" d="M 31.625 34.5 C 31.625 34.519531 31.625 34.542969 31.625 34.5625 C 30.820312 34.5625 30.015625 34.5625 29.1875 34.5625 C 29.207031 34.519531 29.230469 34.480469 29.25 34.4375 C 30.035156 34.300781 30.839844 34.410156 31.625 34.5 Z M 31.625 34.5 "/>
<path style=" stroke:none;fill-rule:nonzero;fill:rgb(55.686277%,28.627452%,73.333335%);fill-opacity:1;" d="M 27.625 19.625 C 27.851562 19.660156 27.953125 19.746094 28.109375 19.910156 C 28.148438 19.949219 28.1875 19.992188 28.226562 20.03125 C 28.253906 20.0625 28.28125 20.09375 28.3125 20.125 C 28.269531 20.167969 28.230469 20.207031 28.1875 20.25 C 28.082031 20.148438 27.976562 20.042969 27.875 19.9375 C 27.875 19.894531 27.875 19.855469 27.875 19.8125 C 27.675781 19.917969 27.53125 20.027344 27.378906 20.191406 C 27.207031 20.371094 27.054688 20.441406 26.8125 20.5 C 26.992188 20.277344 27.171875 20.066406 27.394531 19.886719 C 27.5625 19.769531 27.5625 19.769531 27.625 19.625 Z M 27.625 19.625 "/>
<path style=" stroke:none;fill-rule:nonzero;fill:rgb(19.215687%,13.333334%,45.09804%);fill-opacity:1;" d="M 36.132812 38.679688 C 36.191406 38.683594 36.25 38.683594 36.3125 38.6875 C 36.28125 39.085938 36.28125 39.085938 36.128906 39.277344 C 36 39.375 36 39.375 35.875 39.375 C 35.859375 39.285156 35.847656 39.191406 35.835938 39.101562 C 35.828125 39.050781 35.820312 39 35.8125 38.949219 C 35.8125 38.902344 35.8125 38.859375 35.8125 38.8125 C 35.9375 38.6875 35.9375 38.6875 36.132812 38.679688 Z M 36.132812 38.679688 "/>
<path style=" stroke:none;fill-rule:nonzero;fill:rgb(43.529412%,25.882354%,68.627453%);fill-opacity:1;" d="M 41.8125 35.125 C 41.832031 35.125 41.855469 35.125 41.875 35.125 C 41.9375 35.484375 41.949219 35.832031 41.949219 36.199219 C 41.949219 36.257812 41.949219 36.316406 41.949219 36.378906 C 41.949219 36.503906 41.949219 36.632812 41.949219 36.757812 C 41.949219 36.949219 41.949219 37.140625 41.953125 37.335938 C 41.953125 37.457031 41.953125 37.578125 41.953125 37.703125 C 41.953125 37.757812 41.953125 37.816406 41.953125 37.875 C 41.953125 37.929688 41.953125 37.984375 41.953125 38.039062 C 41.953125 38.085938 41.953125 38.132812 41.953125 38.179688 C 41.933594 38.332031 41.886719 38.433594 41.8125 38.5625 C 41.742188 38.078125 41.742188 38.078125 41.8125 37.9375 C 41.816406 37.847656 41.820312 37.757812 41.820312 37.664062 C 41.820312 37.609375 41.820312 37.550781 41.820312 37.496094 C 41.820312 37.433594 41.820312 37.371094 41.820312 37.308594 C 41.820312 37.246094 41.820312 37.1875 41.816406 37.121094 C 41.816406 36.921875 41.816406 36.722656 41.816406 36.523438 C 41.816406 36.386719 41.816406 36.253906 41.816406 36.117188 C 41.816406 35.789062 41.8125 35.457031 41.8125 35.125 Z M 41.8125 35.125 "/>
<path style=" stroke:none;fill-rule:nonzero;fill:rgb(56.470591%,26.274511%,74.509805%);fill-opacity:1;" d="M 26.5 20.75 C 26.5 21.09375 26.164062 21.324219 25.9375 21.5625 C 25.898438 21.605469 25.855469 21.652344 25.8125 21.699219 C 25.542969 21.984375 25.542969 21.984375 25.316406 22.058594 C 25.273438 22.058594 25.230469 22.0625 25.1875 22.0625 C 25.449219 21.742188 25.730469 21.46875 26.039062 21.191406 C 26.199219 21.050781 26.351562 20.902344 26.5 20.75 Z M 26.5 20.75 "/>
<path style=" stroke:none;fill-rule:nonzero;fill:rgb(21.960784%,17.254902%,70.980394%);fill-opacity:1;" d="M 33.5625 15.625 C 33.644531 15.707031 33.726562 15.789062 33.8125 15.875 C 33.796875 16.046875 33.796875 16.046875 33.75 16.25 C 33.746094 16.414062 33.742188 16.578125 33.746094 16.742188 C 33.746094 16.808594 33.746094 16.808594 33.746094 16.871094 C 33.746094 16.976562 33.75 17.082031 33.75 17.1875 C 33.6875 17.207031 33.625 17.230469 33.5625 17.25 C 33.5625 16.714844 33.5625 16.175781 33.5625 15.625 Z M 33.5625 15.625 "/>
<path style=" stroke:none;fill-rule:nonzero;fill:rgb(29.803923%,26.666668%,67.450982%);fill-opacity:1;" d="M 34.9375 22.875 C 34.980469 22.875 35.019531 22.875 35.0625 22.875 C 35.089844 22.921875 35.117188 22.96875 35.144531 23.015625 C 35.261719 23.203125 35.390625 23.300781 35.5625 23.4375 C 35.5625 23.480469 35.5625 23.519531 35.5625 23.5625 C 35.625 23.582031 35.6875 23.605469 35.75 23.625 C 35.8125 23.6875 35.875 23.75 35.9375 23.8125 C 35.980469 23.832031 36.019531 23.855469 36.0625 23.875 C 36.0625 23.917969 36.0625 23.957031 36.0625 24 C 36.105469 24 36.144531 24 36.1875 24 C 36.207031 24.0625 36.230469 24.125 36.25 24.1875 C 36.003906 24.1875 35.96875 24.117188 35.796875 23.949219 C 35.746094 23.898438 35.699219 23.847656 35.644531 23.796875 C 35.59375 23.742188 35.542969 23.691406 35.488281 23.636719 C 35.433594 23.585938 35.382812 23.53125 35.328125 23.480469 C 35.277344 23.429688 35.226562 23.378906 35.175781 23.328125 C 35.132812 23.28125 35.085938 23.234375 35.039062 23.1875 C 34.9375 23.0625 34.9375 23.0625 34.9375 22.875 Z M 34.9375 22.875 "/>
<path style=" stroke:none;fill-rule:nonzero;fill:rgb(39.215687%,71.764708%,88.235295%);fill-opacity:1;" d="M 27.25 31.4375 C 27.601562 31.730469 27.925781 32.042969 28.246094 32.367188 C 28.292969 32.417969 28.34375 32.464844 28.394531 32.515625 C 28.511719 32.636719 28.632812 32.753906 28.75 32.875 C 28.707031 32.894531 28.667969 32.917969 28.625 32.9375 C 28.242188 32.667969 27.945312 32.3125 27.636719 31.960938 C 27.546875 31.863281 27.453125 31.769531 27.359375 31.675781 C 27.25 31.5625 27.25 31.5625 27.25 31.4375 Z M 27.25 31.4375 "/>
<path style=" stroke:none;fill-rule:nonzero;fill:rgb(31.764707%,22.352941%,69.411767%);fill-opacity:1;" d="M 45.0625 36.4375 C 45.125 36.457031 45.1875 36.480469 45.25 36.5 C 44.941406 36.808594 44.632812 37.117188 44.3125 37.4375 C 44.269531 37.394531 44.230469 37.355469 44.1875 37.3125 C 44.1875 37.25 44.1875 37.1875 44.1875 37.125 C 44.234375 37.105469 44.28125 37.089844 44.328125 37.070312 C 44.472656 37.011719 44.609375 36.945312 44.75 36.875 C 44.75 36.832031 44.75 36.792969 44.75 36.75 C 44.792969 36.75 44.832031 36.75 44.875 36.75 C 44.875 36.707031 44.875 36.667969 44.875 36.625 C 44.917969 36.625 44.957031 36.625 45 36.625 C 45.019531 36.5625 45.042969 36.5 45.0625 36.4375 Z M 45.0625 36.4375 "/>
<path style=" stroke:none;fill-rule:nonzero;fill:rgb(30.588236%,30.19608%,71.372551%);fill-opacity:1;" d="M 35.75 17.75 C 35.933594 17.832031 36.0625 17.921875 36.203125 18.066406 C 36.257812 18.121094 36.257812 18.121094 36.3125 18.175781 C 36.347656 18.210938 36.382812 18.25 36.421875 18.289062 C 36.460938 18.328125 36.496094 18.367188 36.535156 18.40625 C 36.628906 18.5 36.71875 18.59375 36.8125 18.6875 C 36.769531 18.730469 36.730469 18.769531 36.6875 18.8125 C 36.53125 18.660156 36.375 18.503906 36.21875 18.351562 C 36.175781 18.308594 36.128906 18.265625 36.082031 18.21875 C 36.039062 18.175781 36 18.136719 35.953125 18.09375 C 35.914062 18.054688 35.875 18.015625 35.835938 17.976562 C 35.75 17.875 35.75 17.875 35.75 17.75 Z M 35.75 17.75 "/>
<path style=" stroke:none;fill-rule:nonzero;fill:rgb(27.058825%,18.039216%,52.156866%);fill-opacity:1;" d="M 33.6875 31.75 C 33.875 31.835938 34.003906 31.929688 34.148438 32.078125 C 34.207031 32.132812 34.207031 32.132812 34.265625 32.195312 C 34.304688 32.234375 34.34375 32.273438 34.382812 32.316406 C 34.460938 32.398438 34.539062 32.476562 34.617188 32.558594 C 34.652344 32.59375 34.6875 32.628906 34.722656 32.664062 C 34.8125 32.757812 34.8125 32.757812 34.9375 32.8125 C 34.9375 32.855469 34.9375 32.894531 34.9375 32.9375 C 35 32.957031 35.0625 32.980469 35.125 33 C 35.082031 33.042969 35.042969 33.082031 35 33.125 C 34.8125 32.9375 34.625 32.753906 34.4375 32.566406 C 34.375 32.503906 34.3125 32.441406 34.25 32.378906 C 34.15625 32.289062 34.066406 32.195312 33.976562 32.105469 C 33.917969 32.050781 33.863281 31.996094 33.808594 31.941406 C 33.6875 31.8125 33.6875 31.8125 33.6875 31.75 Z M 33.6875 31.75 "/>
<path style=" stroke:none;fill-rule:nonzero;fill:rgb(42.745098%,53.333336%,78.431374%);fill-opacity:1;" d="M 29.8125 33.9375 C 30.054688 33.976562 30.257812 34.050781 30.484375 34.152344 C 30.800781 34.289062 31.097656 34.375 31.4375 34.4375 C 31.4375 34.457031 31.4375 34.480469 31.4375 34.5 C 31.003906 34.46875 31.003906 34.46875 30.5625 34.4375 C 30.5625 34.394531 30.5625 34.355469 30.5625 34.3125 C 30.527344 34.304688 30.492188 34.296875 30.453125 34.289062 C 30.304688 34.25 30.183594 34.191406 30.046875 34.121094 C 30.003906 34.097656 29.957031 34.074219 29.914062 34.050781 C 29.878906 34.035156 29.847656 34.019531 29.8125 34 C 29.8125 33.980469 29.8125 33.957031 29.8125 33.9375 Z M 29.8125 33.9375 "/>
<path style=" stroke:none;fill-rule:nonzero;fill:rgb(35.294119%,15.294118%,65.490198%);fill-opacity:1;" d="M 36.5 38.5625 C 36.589844 38.726562 36.625 38.804688 36.625 39 C 36.289062 39.3125 36.289062 39.3125 36.125 39.3125 C 36.125 39.355469 36.125 39.394531 36.125 39.4375 C 36.023438 39.523438 35.917969 39.609375 35.8125 39.6875 C 35.769531 39.667969 35.730469 39.644531 35.6875 39.625 C 35.730469 39.585938 35.773438 39.542969 35.816406 39.503906 C 36.25 39.089844 36.25 39.089844 36.5 38.5625 Z M 36.5 38.5625 "/>
<path style=" stroke:none;fill-rule:nonzero;fill:rgb(36.078432%,49.019608%,83.529413%);fill-opacity:1;" d="M 44.3125 26.3125 C 44.667969 26.605469 44.992188 26.921875 45.3125 27.25 C 45.25 27.269531 45.1875 27.292969 45.125 27.3125 C 45.101562 27.253906 45.101562 27.253906 45.074219 27.191406 C 45.007812 27.042969 45.007812 27.042969 44.8125 27 C 44.644531 26.847656 44.644531 26.847656 44.5 26.6875 C 44.5 26.644531 44.5 26.605469 44.5 26.5625 C 44.4375 26.542969 44.375 26.519531 44.3125 26.5 C 44.3125 26.4375 44.3125 26.375 44.3125 26.3125 Z M 44.3125 26.3125 "/>
<path style=" stroke:none;fill-rule:nonzero;fill:rgb(18.82353%,9.803922%,49.411765%);fill-opacity:1;" d="M 36.1875 38.4375 C 36.289062 38.519531 36.394531 38.601562 36.5 38.6875 C 36.390625 38.992188 36.390625 38.992188 36.25 39.0625 C 36.269531 38.9375 36.292969 38.816406 36.3125 38.6875 C 36.167969 38.730469 36.023438 38.769531 35.875 38.8125 C 35.855469 38.914062 35.832031 39.019531 35.8125 39.125 C 35.769531 39.105469 35.730469 39.082031 35.6875 39.0625 C 35.789062 38.703125 35.789062 38.703125 36 38.5625 C 36.0625 38.5625 36.125 38.5625 36.1875 38.5625 C 36.1875 38.519531 36.1875 38.480469 36.1875 38.4375 Z M 36.1875 38.4375 "/>
<path style=" stroke:none;fill-rule:nonzero;fill:rgb(54.11765%,25.882354%,77.64706%);fill-opacity:1;" d="M 36.9375 44.125 C 36.980469 44.125 37.019531 44.125 37.0625 44.125 C 36.964844 44.355469 36.824219 44.5 36.648438 44.671875 C 36.570312 44.746094 36.570312 44.746094 36.492188 44.824219 C 36.453125 44.859375 36.414062 44.898438 36.375 44.9375 C 36.355469 44.855469 36.332031 44.773438 36.3125 44.6875 C 36.347656 44.65625 36.382812 44.628906 36.417969 44.597656 C 36.460938 44.558594 36.507812 44.515625 36.554688 44.476562 C 36.601562 44.4375 36.644531 44.398438 36.691406 44.359375 C 36.777344 44.28125 36.859375 44.203125 36.9375 44.125 Z M 36.9375 44.125 "/>
<path style=" stroke:none;fill-rule:nonzero;fill:rgb(52.941179%,29.019609%,78.039217%);fill-opacity:1;" d="M 33.1875 47.8125 C 33.25 47.832031 33.3125 47.855469 33.375 47.875 C 33.273438 47.980469 33.175781 48.082031 33.074219 48.1875 C 33.019531 48.246094 32.960938 48.304688 32.90625 48.363281 C 32.75 48.5 32.75 48.5 32.5625 48.5 C 32.636719 48.273438 32.730469 48.203125 32.910156 48.050781 C 32.960938 48.007812 33.011719 47.960938 33.066406 47.914062 C 33.105469 47.882812 33.144531 47.847656 33.1875 47.8125 Z M 33.1875 47.8125 "/>
<path style=" stroke:none;fill-rule:nonzero;fill:rgb(45.490196%,17.254902%,73.725492%);fill-opacity:1;" d="M 40.4375 40.5625 C 40.5 40.582031 40.5625 40.605469 40.625 40.625 C 40.414062 40.882812 40.207031 41.113281 39.9375 41.3125 C 39.9375 41.125 39.9375 41.125 40.082031 40.972656 C 40.136719 40.917969 40.191406 40.867188 40.25 40.8125 C 40.3125 40.730469 40.378906 40.648438 40.4375 40.5625 Z M 40.4375 40.5625 "/>
<path style=" stroke:none;fill-rule:nonzero;fill:rgb(30.980393%,20.784314%,50.588238%);fill-opacity:1;" d="M 34.1875 26.3125 C 34.417969 26.410156 34.5625 26.550781 34.734375 26.726562 C 34.785156 26.777344 34.835938 26.828125 34.886719 26.882812 C 34.941406 26.941406 34.941406 26.941406 35 27 C 34.9375 27.019531 34.875 27.042969 34.8125 27.0625 C 34.667969 26.917969 34.519531 26.769531 34.375 26.625 C 34.320312 26.574219 34.320312 26.574219 34.265625 26.523438 C 34.1875 26.4375 34.1875 26.4375 34.1875 26.3125 Z M 34.1875 26.3125 "/>
<path style=" stroke:none;fill-rule:nonzero;fill:rgb(39.607844%,14.901961%,57.647061%);fill-opacity:1;" d="M 24.6875 22.5625 C 24.730469 22.5625 24.769531 22.5625 24.8125 22.5625 C 24.8125 22.625 24.8125 22.6875 24.8125 22.75 C 24.894531 22.75 24.976562 22.75 25.0625 22.75 C 25.0625 22.832031 25.0625 22.914062 25.0625 23 C 24.777344 23.023438 24.777344 23.023438 24.636719 22.90625 C 24.613281 22.875 24.585938 22.84375 24.5625 22.8125 C 24.605469 22.730469 24.644531 22.648438 24.6875 22.5625 Z M 24.6875 22.5625 "/>
<path style=" stroke:none;fill-rule:nonzero;fill:rgb(31.37255%,31.764707%,73.725492%);fill-opacity:1;" d="M 42.5625 30.5 C 42.773438 30.574219 42.921875 30.636719 43.0625 30.8125 C 43.082031 30.875 43.105469 30.9375 43.125 31 C 43.167969 31.019531 43.207031 31.042969 43.25 31.0625 C 43.230469 31.125 43.207031 31.1875 43.1875 31.25 C 43.082031 31.148438 42.980469 31.046875 42.875 30.945312 C 42.816406 30.890625 42.757812 30.832031 42.699219 30.773438 C 42.5625 30.625 42.5625 30.625 42.5625 30.5 Z M 42.5625 30.5 "/>
<path style=" stroke:none;fill-rule:nonzero;fill:rgb(32.941177%,81.568629%,90.980393%);fill-opacity:1;" d="M 24.0625 28.25 C 24.316406 28.351562 24.484375 28.535156 24.671875 28.726562 C 24.703125 28.757812 24.734375 28.789062 24.769531 28.824219 C 24.84375 28.902344 24.921875 28.984375 25 29.0625 C 24.9375 29.082031 24.875 29.105469 24.8125 29.125 C 24.773438 29.082031 24.734375 29.039062 24.695312 28.992188 C 24.644531 28.9375 24.59375 28.878906 24.542969 28.820312 C 24.492188 28.765625 24.441406 28.707031 24.390625 28.648438 C 24.253906 28.492188 24.253906 28.492188 24.0625 28.375 C 24.0625 28.332031 24.0625 28.292969 24.0625 28.25 Z M 24.0625 28.25 "/>
<path style=" stroke:none;fill-rule:nonzero;fill:rgb(27.058825%,16.470589%,50.980395%);fill-opacity:1;" d="M 30.25 39.75 C 30.296875 39.769531 30.339844 39.789062 30.386719 39.808594 C 30.558594 39.878906 30.558594 39.878906 30.726562 39.902344 C 30.898438 39.941406 30.945312 40 31.0625 40.125 C 31.125 40.144531 31.1875 40.167969 31.25 40.1875 C 31.25 40.230469 31.25 40.269531 31.25 40.3125 C 30.859375 40.203125 30.566406 40.066406 30.25 39.8125 C 30.25 39.792969 30.25 39.769531 30.25 39.75 Z M 30.25 39.75 "/>
<path style=" stroke:none;fill-rule:nonzero;fill:rgb(49.019608%,16.470589%,81.960785%);fill-opacity:1;" d="M 41.4375 39.25 C 41.480469 39.292969 41.519531 39.332031 41.5625 39.375 C 41.515625 39.457031 41.464844 39.539062 41.417969 39.621094 C 41.390625 39.667969 41.363281 39.710938 41.335938 39.757812 C 41.25 39.875 41.25 39.875 41.0625 39.9375 C 41.042969 39.875 41.019531 39.8125 41 39.75 C 41.050781 39.703125 41.097656 39.65625 41.148438 39.605469 C 41.316406 39.441406 41.316406 39.441406 41.4375 39.25 Z M 41.4375 39.25 "/>
<path style=" stroke:none;fill-rule:nonzero;fill:rgb(28.627452%,20%,65.882355%);fill-opacity:1;" d="M 43.9375 36.375 C 43.957031 36.375 43.980469 36.375 44 36.375 C 44.019531 36.726562 44.042969 37.078125 44.0625 37.4375 C 44.105469 37.4375 44.144531 37.4375 44.1875 37.4375 C 44.078125 37.679688 44.078125 37.679688 43.9375 37.75 C 43.9375 37.296875 43.9375 36.84375 43.9375 36.375 Z M 43.9375 36.375 "/>
<path style=" stroke:none;fill-rule:nonzero;fill:rgb(34.117648%,21.960784%,57.254905%);fill-opacity:1;" d="M 29.9375 28.0625 C 29.980469 28.0625 30.019531 28.0625 30.0625 28.0625 C 30.0625 28.105469 30.0625 28.144531 30.0625 28.1875 C 30.105469 28.1875 30.144531 28.1875 30.1875 28.1875 C 30.1875 28.230469 30.1875 28.269531 30.1875 28.3125 C 30.222656 28.328125 30.257812 28.339844 30.296875 28.355469 C 30.472656 28.457031 30.566406 28.585938 30.6875 28.75 C 30.5 28.75 30.5 28.75 30.359375 28.632812 C 30.308594 28.582031 30.257812 28.527344 30.207031 28.476562 C 30.15625 28.425781 30.105469 28.375 30.054688 28.324219 C 29.9375 28.1875 29.9375 28.1875 29.9375 28.0625 Z M 29.9375 28.0625 "/>
<path style=" stroke:none;fill-rule:nonzero;fill:rgb(52.156866%,22.745098%,72.156864%);fill-opacity:1;" d="M 25.125 22.0625 C 25.203125 22.296875 25.148438 22.398438 25.0625 22.625 C 24.875 22.625 24.875 22.625 24.75 22.5625 C 24.839844 22.351562 24.957031 22.21875 25.125 22.0625 Z M 25.125 22.0625 "/>
<path style=" stroke:none;fill-rule:nonzero;fill:rgb(47.450981%,27.843139%,64.705884%);fill-opacity:1;" d="M 27.625 19.625 C 27.851562 19.660156 27.953125 19.746094 28.109375 19.910156 C 28.148438 19.949219 28.1875 19.992188 28.226562 20.03125 C 28.253906 20.0625 28.28125 20.09375 28.3125 20.125 C 28.269531 20.167969 28.230469 20.207031 28.1875 20.25 C 28.082031 20.148438 27.976562 20.042969 27.875 19.9375 C 27.875 19.894531 27.875 19.855469 27.875 19.8125 C 27.792969 19.832031 27.710938 19.855469 27.625 19.875 C 27.625 19.792969 27.625 19.710938 27.625 19.625 Z M 27.625 19.625 "/>
<path style=" stroke:none;fill-rule:nonzero;fill:rgb(33.725491%,27.450982%,76.47059%);fill-opacity:1;" d="M 46.375 35 C 46.417969 35 46.457031 35 46.5 35 C 46.410156 35.191406 46.308594 35.351562 46.179688 35.515625 C 46.144531 35.558594 46.113281 35.605469 46.078125 35.648438 C 46.050781 35.683594 46.027344 35.714844 46 35.75 C 45.980469 35.667969 45.957031 35.585938 45.9375 35.5 C 45.980469 35.5 46.019531 35.5 46.0625 35.5 C 46.078125 35.464844 46.097656 35.429688 46.113281 35.390625 C 46.1875 35.246094 46.269531 35.125 46.375 35 Z M 46.375 35 "/>
<path style=" stroke:none;fill-rule:nonzero;fill:rgb(25.098041%,14.117648%,48.627451%);fill-opacity:1;" d="M 34.875 27.0625 C 35.117188 27.160156 35.269531 27.320312 35.453125 27.507812 C 35.507812 27.566406 35.566406 27.621094 35.621094 27.679688 C 35.664062 27.722656 35.707031 27.765625 35.75 27.8125 C 35.519531 27.8125 35.433594 27.757812 35.25 27.625 C 35.148438 27.472656 35.148438 27.472656 35.0625 27.3125 C 35 27.226562 34.9375 27.144531 34.875 27.0625 Z M 34.875 27.0625 "/>
<path style=" stroke:none;fill-rule:nonzero;fill:rgb(34.901962%,26.274511%,65.882355%);fill-opacity:1;" d="M 33.5 15.375 C 33.542969 15.375 33.582031 15.375 33.625 15.375 C 33.734375 15.484375 33.734375 15.484375 33.851562 15.625 C 33.890625 15.671875 33.929688 15.71875 33.972656 15.765625 C 34 15.800781 34.03125 15.835938 34.0625 15.875 C 34.019531 15.917969 33.980469 15.957031 33.9375 16 C 33.875 15.949219 33.816406 15.898438 33.753906 15.84375 C 33.59375 15.679688 33.59375 15.679688 33.5 15.6875 C 33.5 15.585938 33.5 15.480469 33.5 15.375 Z M 33.5 15.375 "/>
<path style=" stroke:none;fill-rule:nonzero;fill:rgb(26.666668%,16.470589%,52.549022%);fill-opacity:1;" d="M 36 33.9375 C 36.269531 34.023438 36.402344 34.136719 36.582031 34.351562 C 36.625 34.402344 36.667969 34.453125 36.714844 34.507812 C 36.746094 34.546875 36.777344 34.585938 36.8125 34.625 C 36.792969 34.667969 36.769531 34.707031 36.75 34.75 C 36.726562 34.722656 36.703125 34.695312 36.679688 34.664062 C 36.472656 34.414062 36.253906 34.207031 36 34 C 36 33.980469 36 33.957031 36 33.9375 Z M 36 33.9375 "/>
<path style=" stroke:none;fill-rule:nonzero;fill:rgb(31.764707%,30.980393%,70.19608%);fill-opacity:1;" d="M 38.8125 26.8125 C 38.855469 26.8125 38.894531 26.8125 38.9375 26.8125 C 38.9375 26.855469 38.9375 26.894531 38.9375 26.9375 C 38.972656 26.949219 39.007812 26.964844 39.042969 26.976562 C 39.246094 27.097656 39.355469 27.253906 39.5 27.4375 C 39.3125 27.4375 39.3125 27.4375 39.199219 27.347656 C 39.164062 27.308594 39.125 27.269531 39.085938 27.230469 C 39.027344 27.171875 39.027344 27.171875 38.96875 27.113281 C 38.875 27 38.875 27 38.8125 26.8125 Z M 38.8125 26.8125 "/>
<path style=" stroke:none;fill-rule:nonzero;fill:rgb(40.392157%,87.450981%,94.117647%);fill-opacity:1;" d="M 23.4375 27.625 C 23.679688 27.660156 23.789062 27.765625 23.953125 27.941406 C 23.996094 27.988281 24.042969 28.03125 24.085938 28.082031 C 24.121094 28.117188 24.152344 28.152344 24.1875 28.1875 C 24.125 28.207031 24.0625 28.230469 24 28.25 C 23.960938 28.199219 23.921875 28.148438 23.882812 28.097656 C 23.765625 27.933594 23.765625 27.933594 23.625 27.875 C 23.625 27.832031 23.625 27.792969 23.625 27.75 C 23.5625 27.730469 23.5 27.707031 23.4375 27.6875 C 23.4375 27.667969 23.4375 27.644531 23.4375 27.625 Z M 23.4375 27.625 "/>
<path style=" stroke:none;fill-rule:nonzero;fill:rgb(18.82353%,18.431373%,37.254903%);fill-opacity:1;" d="M 36.1875 38.75 C 36.1875 38.851562 36.1875 38.957031 36.1875 39.0625 C 36.085938 39.082031 35.980469 39.105469 35.875 39.125 C 35.898438 38.972656 35.898438 38.972656 35.9375 38.8125 C 36.0625 38.75 36.0625 38.75 36.1875 38.75 Z M 36.1875 38.75 "/>
<path style=" stroke:none;fill-rule:nonzero;fill:rgb(36.078432%,49.803922%,86.274511%);fill-opacity:1;" d="M 45.8125 27.875 C 46.175781 28.226562 46.175781 28.226562 46.3125 28.4375 C 46.3125 28.480469 46.3125 28.519531 46.3125 28.5625 C 46.269531 28.5625 46.230469 28.5625 46.1875 28.5625 C 46.09375 28.445312 46.09375 28.445312 45.992188 28.289062 C 45.957031 28.238281 45.925781 28.1875 45.890625 28.136719 C 45.8125 28 45.8125 28 45.8125 27.875 Z M 45.8125 27.875 "/>
<path style=" stroke:none;fill-rule:nonzero;fill:rgb(23.529412%,14.901961%,46.666667%);fill-opacity:1;" d="M 27.4375 37.1875 C 27.625 37.273438 27.769531 37.371094 27.921875 37.507812 C 27.980469 37.558594 27.980469 37.558594 28.039062 37.609375 C 28.066406 37.636719 28.09375 37.660156 28.125 37.6875 C 28.105469 37.75 28.082031 37.8125 28.0625 37.875 C 27.957031 37.773438 27.855469 37.667969 27.75 37.566406 C 27.691406 37.507812 27.632812 37.453125 27.574219 37.394531 C 27.4375 37.25 27.4375 37.25 27.4375 37.1875 Z M 27.4375 37.1875 "/>
<path style=" stroke:none;fill-rule:nonzero;fill:rgb(37.254903%,50.588238%,85.882354%);fill-opacity:1;" d="M 45.3125 27.3125 C 45.382812 27.371094 45.457031 27.429688 45.527344 27.488281 C 45.566406 27.519531 45.605469 27.554688 45.648438 27.585938 C 45.75 27.6875 45.75 27.6875 45.8125 27.875 C 45.75 27.875 45.6875 27.875 45.625 27.875 C 45.609375 27.824219 45.589844 27.773438 45.574219 27.722656 C 45.550781 27.667969 45.523438 27.617188 45.5 27.5625 C 45.4375 27.542969 45.375 27.519531 45.3125 27.5 C 45.3125 27.4375 45.3125 27.375 45.3125 27.3125 Z M 45.3125 27.3125 "/>
<path style=" stroke:none;fill-rule:nonzero;fill:rgb(50.196081%,31.764707%,72.549021%);fill-opacity:1;" d="M 41.875 37.75 C 41.894531 37.75 41.917969 37.75 41.9375 37.75 C 41.941406 37.839844 41.941406 37.925781 41.945312 38.015625 C 41.945312 38.066406 41.949219 38.113281 41.949219 38.164062 C 41.9375 38.324219 41.894531 38.425781 41.8125 38.5625 C 41.722656 38.035156 41.722656 38.035156 41.875 37.75 Z M 41.875 37.75 "/>
<path style=" stroke:none;fill-rule:nonzero;fill:rgb(48.235294%,17.647059%,75.294119%);fill-opacity:1;" d="M 35.3125 45.6875 C 35.375 45.707031 35.4375 45.730469 35.5 45.75 C 35.355469 45.894531 35.210938 46.039062 35.0625 46.1875 C 35.042969 46.125 35.019531 46.0625 35 46 C 35.101562 45.898438 35.207031 45.792969 35.3125 45.6875 Z M 35.3125 45.6875 "/>
<path style=" stroke:none;fill-rule:nonzero;fill:rgb(30.19608%,20%,50.980395%);fill-opacity:1;" d="M 28.9375 38.625 C 29.175781 38.71875 29.289062 38.859375 29.4375 39.0625 C 29.25 39.0625 29.25 39.0625 29.082031 38.914062 C 28.9375 38.75 28.9375 38.75 28.9375 38.625 Z M 28.9375 38.625 "/>
<path style=" stroke:none;fill-rule:nonzero;fill:rgb(39.607844%,60.000002%,84.313726%);fill-opacity:1;" d="M 29.25 33.5625 C 29.511719 33.605469 29.710938 33.742188 29.9375 33.875 C 29.828125 33.914062 29.828125 33.914062 29.6875 33.9375 C 29.566406 33.878906 29.566406 33.878906 29.453125 33.789062 C 29.414062 33.761719 29.375 33.730469 29.335938 33.703125 C 29.308594 33.675781 29.28125 33.652344 29.25 33.625 C 29.25 33.605469 29.25 33.582031 29.25 33.5625 Z M 29.25 33.5625 "/>
<path style=" stroke:none;fill-rule:nonzero;fill:rgb(21.960784%,19.215687%,60.392159%);fill-opacity:1;" d="M 34.375 22.25 C 34.597656 22.417969 34.769531 22.589844 34.9375 22.8125 C 34.917969 22.855469 34.894531 22.894531 34.875 22.9375 C 34.792969 22.847656 34.707031 22.753906 34.625 22.664062 C 34.578125 22.613281 34.53125 22.5625 34.484375 22.511719 C 34.375 22.375 34.375 22.375 34.375 22.25 Z M 34.375 22.25 "/>
<path style=" stroke:none;fill-rule:nonzero;fill:rgb(23.529412%,18.039216%,65.490198%);fill-opacity:1;" d="M 33.875 15.9375 C 34.03125 15.96875 34.03125 15.96875 34.1875 16 C 34.207031 16.101562 34.230469 16.207031 34.25 16.3125 C 34.097656 16.265625 34.097656 16.265625 33.9375 16.1875 C 33.886719 16.054688 33.886719 16.054688 33.875 15.9375 Z M 33.875 15.9375 "/>
<path style=" stroke:none;fill-rule:nonzero;fill:rgb(32.941177%,78.431374%,90.588236%);fill-opacity:1;" d="M 26.125 30.25 C 26.269531 30.375 26.414062 30.496094 26.5625 30.625 C 26.3125 30.6875 26.3125 30.6875 26.1875 30.625 C 26.148438 30.433594 26.148438 30.433594 26.125 30.25 Z M 26.125 30.25 "/>
<path style=" stroke:none;fill-rule:nonzero;fill:rgb(21.960784%,23.529412%,74.509805%);fill-opacity:1;" d="M 38.625 26.5 C 38.8125 26.53125 38.8125 26.53125 39 26.5625 C 38.980469 26.644531 38.957031 26.726562 38.9375 26.8125 C 38.855469 26.792969 38.773438 26.769531 38.6875 26.75 C 38.667969 26.667969 38.644531 26.585938 38.625 26.5 Z M 38.625 26.5 "/>
<path style=" stroke:none;fill-rule:nonzero;fill:rgb(50.588238%,25.490198%,78.039217%);fill-opacity:1;" d="M 33.75 47.375 C 33.664062 47.585938 33.5625 47.6875 33.375 47.8125 C 33.375 47.625 33.375 47.625 33.492188 47.488281 C 33.625 47.375 33.625 47.375 33.75 47.375 Z M 33.75 47.375 "/>
<path style=" stroke:none;fill-rule:nonzero;fill:rgb(54.901963%,89.019608%,97.254902%);fill-opacity:1;" d="M 22.75 26.8125 C 22.851562 26.914062 22.957031 27.019531 23.0625 27.125 C 22.960938 27.167969 22.855469 27.207031 22.75 27.25 C 22.75 27.105469 22.75 26.960938 22.75 26.8125 Z M 22.75 26.8125 "/>
<path style=" stroke:none;fill-rule:nonzero;fill:rgb(47.843137%,21.568628%,76.078433%);fill-opacity:1;" d="M 40.4375 40.5625 C 40.5 40.582031 40.5625 40.605469 40.625 40.625 C 40.523438 40.75 40.417969 40.871094 40.3125 41 C 40.292969 40.9375 40.269531 40.875 40.25 40.8125 C 40.339844 40.675781 40.339844 40.675781 40.4375 40.5625 Z M 40.4375 40.5625 "/>
<path style=" stroke:none;fill-rule:nonzero;fill:rgb(34.901962%,18.82353%,62.352943%);fill-opacity:1;" d="M 41.4375 34.125 C 41.570312 34.289062 41.648438 34.414062 41.6875 34.625 C 41.605469 34.582031 41.523438 34.542969 41.4375 34.5 C 41.4375 34.375 41.4375 34.253906 41.4375 34.125 Z M 41.4375 34.125 "/>
<path style=" stroke:none;fill-rule:nonzero;fill:rgb(27.843139%,24.313726%,64.313728%);fill-opacity:1;" d="M 34.1875 16.0625 C 34.34375 16.207031 34.34375 16.207031 34.5 16.375 C 34.5 16.4375 34.5 16.5 34.5 16.5625 C 34.378906 16.523438 34.378906 16.523438 34.25 16.4375 C 34.203125 16.242188 34.203125 16.242188 34.1875 16.0625 Z M 34.1875 16.0625 "/>
<path style=" stroke:none;fill-rule:nonzero;fill:rgb(23.921569%,14.117648%,76.862746%);fill-opacity:1;" d="M 33.625 15.6875 C 33.71875 15.769531 33.71875 15.769531 33.8125 15.875 C 33.796875 16.0625 33.773438 16.207031 33.6875 16.375 C 33.625 16.3125 33.625 16.3125 33.617188 16.167969 C 33.621094 16.113281 33.621094 16.054688 33.621094 15.996094 C 33.621094 15.9375 33.621094 15.882812 33.621094 15.820312 C 33.625 15.777344 33.625 15.734375 33.625 15.6875 Z M 33.625 15.6875 "/>
</g>
</svg>
